<svg xmlns="http://www.w3.org/2000/svg" viewBox="0 0 274 169"><g fill="none" stroke="#918f90" stroke-width="2"><path d="m120.62 143.59 3.25 6.26a1.2.85 71.8 0 0 .88.65h4q.64 0 .31-.56l-3.49-6a.81.64-42.5 0 1 .13-.82c2.84-3.6 6.12-6.44.77-9.82a.73.56-66 0 1-.19-.79l2.15-6.33a.66.5-76 0 1 .57-.46l8.5.83a.77.42 5.7 0 1 .71.49q-.16 2.56 1.14 1.11a1.08.09 76.6 0 0-.15-1.01c-.19-.88 9.02-1.75 9.52-1.84a.73.49-15.1 0 1 .75.25l1.94 4.28a1.2.5 74.5 0 0 .46.59c1.15.59-1.34-4.71-1.43-4.97a.5.5 0 0 1 .32-.66l9.77-2.95a.77.66 56.2 0 1 .69.19l10.56 10.19a.68.64 53.6 0 0 .74.14c.91-.42-9.11-9.84-10.05-10.82a.26.26 0 0 1 .1-.42c12.37-4.54 22.3-7.2 37.47-10.65q15.41-3.5 30-8.45a1.5 1.49 74.3 0 0 .98-1.75c-4.19-18.42-7.55-34.07-8.78-54.49a1.06 1-75.2 0 0-.43-.79q-3.72-2.56-9.73-5.34-25.86-12-50.85-18.81c-14.22-3.87-25.69-5.26-39.95-1.91Q86.98 27 55.17 44.09a2.85 2.84 78 0 0-1.49 2.31c-1.21 18.44-4.51 35.83-8.68 53.92a1.48 1.47-74.1 0 0 .96 1.73q14.48 5.02 29.51 8.41c16.08 3.62 26.67 6.48 39.83 11.32a.45.42-60.1 0 1 .16.68l-7.13 8.86a.44.35-61.5 0 0 .12.67c.7.14 5.66-6.18 8.06-9.13a.91.5-56.7 0 1 .75-.4l9.74 2.8a.68.54-73.6 0 1 .33.81l-2.02 6.7a.65.65 0 0 1-.62.46l-8.19.03a.5.49 0 0 0-.5.49V150a.69.56.5 0 0 .68.56l2.83.05a.62.44-88.9 0 0 .45-.61l.13-6.51q.01-.9.53.1" vector-effect="non-scaling-stroke"/><path d="M99.699 116.995a.27.27 0 0 0-.366-.109l-20.408 11.035a.27.27 0 0 0-.11.365l.086.159a.27.27 0 0 0 .366.109l20.408-11.035a.27.27 0 0 0 .11-.366l-.086-.158m51.491 29.485-4.19.03a.75.49 0 0 0-.75.49v3.25a.71.39 4 0 0 .65.42c2.3.21 6.64.52 8.39-1.27 3.25-3.29-1.99-8.18-3.96-11.03q-.95-1.38.67-1.38l3.25.01a.92.45.5 0 0 .91-.43l.13-2.82a.73.53-.4 0 0-.76-.55c-3.36.13-9.64-1.21-9.31 3.82.2 3 3.22 5.94 5 8.56q.6.89-.03.9m-67.42-3.73 1.43 7.26a.91.79 83.9 0 0 .8.74h4.5a.88.45-81.5 0 0 .53-.74l3.14-16.28a.42.41 5.1 0 0-.42-.48H90a.9.37-79.1 0 0-.49.75l-1.72 8.01q-.29 1.38-.61.01l-1.63-7.03a.91.45 79.6 0 0-.55-.74h-3a.96.63-81.2 0 0-.69.76L79.75 142q-.3 1.37-.6.02l-1.77-7.99a.98.54 80.1 0 0-.63-.79l-3.5.01a.63.52 83.2 0 0-.48.75l3.13 16.32a.63.54-5 0 0 .6.43h4.75a.63.33-80.6 0 0 .39-.52l1.61-7.48q.28-1.27.52 0m15.97-9.51a.61.61 0 0 0-.52.29l-4.87 7.87a.61.61 0 0 0-.01.64l4.87 8.16a.61.61 0 0 0 .53.3h9.05a.61.61 0 0 0 .52-.29l4.97-7.99a.61.61 0 0 0 0-.64l-4.98-8.04a.61.61 0 0 0-.52-.29l-9.04-.01m35.96 6.7-.28-5.97a.76.4 87.5 0 0-.42-.72h-3.25a.75.29 90 0 0-.29.75l.06 16a.78.47 89.7 0 0 .48.78l3.32-.11a.85.25 89.2 0 0 .24-.85l-.09-6.32q-.02-1.5.69-.17l3.69 6.84a1.01.46 66.4 0 0 .65.58h3.75a.4.39 76.3 0 0 .34-.58l-4.36-8.66a1.08.91 50.9 0 1 .02-1.01l4.3-6.45q.55-.82-.05-.82l-3.69.05a1.23.22-56.8 0 0-.74.78l-3.88 5.63q-.47.69-.49.25m31.27 2.56a.34.34 0 0 1 .34.34l-.09 7.33a.34.34 0 0 0 .34.34l3.85-.01a.34.34 0 0 0 .34-.34v-16.57a.34.34 0 0 0-.34-.34h-3.65a.34.34 0 0 0-.34.35l.11 4.3a.34.34 0 0 1-.34.35h-4.08a.34.34 0 0 1-.34-.34l.05-4.32a.34.34 0 0 0-.34-.34h-3.39a.34.34 0 0 0-.34.34v16.57a.34.34 0 0 0 .34.34h3.32a.34.34 0 0 0 .34-.34v-7.32a.34.34 0 0 1 .34-.34h3.88m12.02-9.25a.88.88 0 0 0-.75.41l-4.69 7.54a.88.88 0 0 0-.01.91l4.68 7.96a.88.88 0 0 0 .76.43h8.78a.88.88 0 0 0 .75-.42l4.73-7.79a.88.88 0 0 0-.01-.92l-4.79-7.7a.88.88 0 0 0-.75-.42h-8.7m26.34.59q-4.73-1.02-9.59-.49a.66.54 87.7 0 0-.49.65v16.25a.5.5 0 0 0 .5.5h2.75a.5.5 0 0 0 .5-.5v-2.5a1.04.86-15.9 0 1 .57-.83c3.74-1.84 7.62-4.93 7.93-9.42q.22-3.13-2.17-3.66M144.49 31.02q.34 1.15.13 3.3-2.1 21.84-3.94 43.7-.27 3.21.11 5.96.23 1.69 1.31.36 5.55-6.79 9.61-14.58a1.42 1.05-45.9 0 0 .13-.99c-5.09-15.22-4.56-30.76-2.32-46.4a.96.94 9.5 0 0-.78-1.06q-11.35-2.12-22.75-.08a1.39 1.35 80.7 0 0-1.09 1.57c2.49 16.5 2.83 32.73-3.44 48.47a1.15 1.08-50.3 0 0 .06.98q4.02 6.92 9.63 12.59.45.46.56-.26c1.03-6.8-1.9-15.82-3.42-22.55-.33-1.47.48-1.69.84-.26q2.76 11.14 6.62 21.95.41 1.15.94.05 1.44-3.03 1.88-6.85 2.65-22.95 5.68-45.86.07-.59.24-.04m28.93 12.34 14.9 7.06q.4.18.35-.23l-1.93-16.94a.85.78 9 0 0-.52-.66q-13.88-5.79-28.35-9.84a.68.68 0 0 0-.86.75l6.64 50.07q.05.41.49.06l2.2-1.79a.27.15-34.4 0 1 .35-.03l.06.19a.57.56 60.7 0 1-.16.59l-2.25 2.01a1.16.97-27.5 0 0-.38.91l1.45 10.8a.72.7 76.7 0 0 .93.59l13.16-4.66a1.37 1.09 76 0 0 .67-1.47l-.98-5.26a.66.34-11.4 0 1 .57-.46l10.23-2.12a.64.63-9.2 0 0 .5-.68l-1.4-12.81a.5.36 88.3 0 0-.34-.44l-12.76-.9a.76.69 85.6 0 1-.65-.62l-2.43-13.56q-.15-.88.51-.56M80.66 58.6l12.81 8.44a.39.36 21.8 0 0 .59-.22l5.32-37.09q.26-1.85-1.44-1.12l-16.99 7.27a1.01.71 82.4 0 0-.45.87v21.5a.46.35-76.8 0 0 .16.35m131.68 10.12-9.54-29.03a1.38 1.32-87.9 0 0-.71-.8l-11.85-5.37q-.5-.23-.4.47l6.36 41.52a.49.42 78.8 0 0 .53.42q5.84-1.45.2 1.31a.6.4-21.2 0 0-.35.5l4.36 28.27a.56.43 78.4 0 0 .56.49l7.48-2.07a.76.65-9.8 0 0 .56-.68l-.81-21.25q-.03-.81.42-.16l12.65 18.36a.97.3 57.1 0 0 .7.58l1.95-.57a.92.42 78.7 0 0 .22-.94l-9.79-53.59a1.11 1.02-83.2 0 0-.55-.76l-3.5-1.76q-.55-.27-.49.38c.87 9.05 2.98 23.38 2.35 24.85q-.16.4-.35-.17M58.99 84.34l10.76.62a.55.39-83.9 0 1 .34.61l-2.86 19.68a.5.36-80.4 0 0 .26.54l9.51 1.96a.66.43-86.7 0 0 .51-.69l-.02-48.81a.92.77 19.1 0 0-.42-.7c-.71-.44-9.01-5.54-8.19-5.97a.72.7 46.9 0 1 .71.03l7.43 4.61q.46.29.46-.22l.06-18.19a.37.34-13.7 0 0-.53-.29l-19.35 9.11a.72.71 79.2 0 0-.42.62l-2.85 54.74a.87.74-81.9 0 0 .54.85l4.32 1.17a.67.33-89.5 0 0 .38-.75l-1.2-18.51a.52.4 1.1 0 1 .56-.41m37.74 17.59c-.05-.44 10.64-1.55 11.79-1.69a.8.79-3.9 0 0 .71-.81q-.14-4.69-.63-9.67c-.08-.77-1.07-2.38-.96-.23a.37.36-85.8 0 1-.44.38c-5.01-1.12-10.75.13-15.76.71a.58.55.2 0 1-.64-.61L93.74 69a.95.69 24.1 0 0-.45-.78l-12.16-7.89q-.58-.37-.58.42l-.04 47a.62.47 10.2 0 0 .45.49l21.89 6.09a1.4.61 23.7 0 0 .97 0l5.49-3.01a.93.78 76.2 0 0 .4-.82l-.37-8.68a.98.75-4.9 0 0-1.08-.69l-11.25 1.22a.44.23 84.5 0 1-.28-.42m55.6-30.81c-1.54 2.85-6.48 10.75-6.93 15.7a.38.37-10 0 0 .54.36q6.28-2.76 11.19-7.57a1.01.42-42.1 0 0 .42-.89l-4.47-7.79q-.34-.58-.75.19M115.64 81.9l11.55 5.95q1.47.76.84-.86-2.82-7.32-7.31-13.75a.44.44 0 0 0-.74.03l-4.46 8.02a.48.4-61.4 0 0 .12.61m33.15 7.38q-2.07 2.07.95 1.91 5.94-.33 11.4-2.65a.7.59-22.8 0 0 .41-.81l-2.58-6.47a1.1.88 59.5 0 0-1.55-.59l-8.63 8.61m-23.76 1.97c-1.9-3.37-6.15-6.11-9.52-8.23a.65.61 25.8 0 0-.94.3l-2.13 6.16a.83.77-76.5 0 0 .61 1.08l11.68 1.39q.74.08.3-.7m56.49-3-.78-4.26a.97.95 75.3 0 0-1.25-.75l-13.26 4.7a.69.45-15.9 0 0-.49.56l1.37 9.74a.8.76-89.7 0 0 .64.68q3.44.56.27 1.17a.64.31-10.8 0 0-.56.42l2.23 13.75a.4.39-12.9 0 0 .51.31l24.78-7.14a.62.6-12.4 0 0 .45-.67l-3.12-20.52a.59.51-13.6 0 0-.74-.38l-9.55 2.95a.62.35 77.5 0 1-.5-.56m-41.17.89a2.96 2.96 0 0 0-2.96-2.96 2.96 2.96 0 0 0-2.96 2.96 2.96 2.96 0 0 0 2.96 2.96 2.96 2.96 0 0 0 2.96-2.96m9.88 6.69q5.85 1.94 12.04 2.32a.81.47 1.1 0 0 .88-.49l-.89-7.74a.87.37-15.5 0 0-1-.13q-5.88 1.81-11.12 5.07-.98.61.09.97m-26.13.28q-5.33-3.38-11.54-4.65a.64.53 8 0 0-.76.47l-.39 7.31a.75.5-3.7 0 0 .84.48q6.07-.72 11.76-2.96.68-.27.09-.65m9.67 2.38c.52.36.93 7.34 1.1 8.53q.11.78.43-.01l1.57-3.92q.38-.93.75 0l1.59 3.92q.55 1.36.61-.01l.39-8.49q.03-.5.25-.13l.91 1.45q.69 1.1.61-.09l-.37-6a1.06.35 12.8 0 0-.86-.52q-3.52-.95-7.07-.06a.94.66-7.2 0 0-.7.64l-.67 5.96q-.13 1.17.45.24.36-.58.49-1.25a.37.33-68.6 0 1 .52-.26m16.43 2.56q4.6 3.88 10.04 6.47a.55.39 21.9 0 0 .71-.17l2.04-7.48a.79.61 9 0 0-.74-.79q-5.93-.48-11.76.61-1.56.29-.29 1.36m-26.45-.26q-5.63-1.07-11.25-.07a.65.44-9.6 0 0-.57.54q.56 3.51 2.16 6.66a.64.51-26.8 0 0 .8.17q4.96-2.45 9.23-5.94 1.29-1.05-.37-1.36m35.59 7.57-9.52-3.8q-2.66-1.07-1.24 1.36 2.74 4.65 6.53 8.47a.66.49 41.9 0 0 .88.08l3.61-4.88a.83.75-60 0 0-.26-1.23m-43.43.45a1.09 1.09 0 0 0-.47 1.7l4.06 5.14a1.09 1.09 0 0 0 1.76-.06l5.98-8.9a1.09 1.09 0 0 0-1.28-1.63l-10.05 3.75m38.43 6.59q-4.07-4.52-9.28-7.71-.75-.46-.63.33.97 6.24 3.61 11.96a.68.48 61.1 0 0 .82.4l5.54-4.2a.61.43 50.3 0 0-.06-.78m-32.64 1.08a.86.86 0 0 0 .16 1.37l5.79 3.41a.86.86 0 0 0 1.28-.56l2.38-11.23a.86.86 0 0 0-1.43-.8l-8.18 7.81m18.23-6.48q-1.37 6.04-.85 12.24a.92.55 82.6 0 0 .71.9l6.95-1.77a.89.55 70.4 0 0 .23-1.08q-2.26-5.67-6.16-10.39-.67-.81-.88.1m-9.78 11.97q3.45 1.11 6.99 1.12a.6.6 0 0 0 .6-.6q.06-6.35-2.11-12.32-.17-.47-.49-.02-3.75 5.35-5.07 11.69a.11.11 0 0 0 .08.13m-20.53-5.63a.4.4 0 0 0 .51-.42l-.26-3.16a.4.4 0 0 0-.58-.33l-3.85 1.91a.4.4 0 0 0 .06.74l4.12 1.26m14.45 20.74-3.57-.11a.72.56 88 0 0-.56.78l.32 4q.07.93.74.24l3.56-3.69q1.13-1.17-.49-1.22" vector-effect="non-scaling-stroke"/><path d="M70.38 57.8a.31.31 0 0 0-.61.04l-1.69 11a.31.31 0 0 0 .32.36l4.73-.27a.31.31 0 0 0 .28-.39L70.38 57.8m-7.22 2.99a.31.31 0 0 0-.61 0L61 69.51a.31.31 0 0 0 .32.36l3.16-.16a.31.31 0 0 0 .28-.37l-1.6-8.55m45.21 81.12a4.13 4.13 0 0 0-4.13-4.13 4.13 4.13 0 0 0-4.13 4.13 4.13 4.13 0 0 0 4.13 4.13 4.13 4.13 0 0 0 4.13-4.13m79.13-.04a4.15 4.15 0 0 0-4.15-4.15 4.15 4.15 0 0 0-4.15 4.15 4.15 4.15 0 0 0 4.15 4.15 4.15 4.15 0 0 0 4.15-4.15m13.46-4.96a1.33 1.33 0 0 0-1.64 1.05q-1.43 7.92 3.47 1.57 1.39-1.8-1.83-2.62" vector-effect="non-scaling-stroke"/></g><path fill="#231f20" d="M72.95 158.07q-1.25-.86-2.12-2.11Q54.09 132 38.25 107.05a1.54 1.54 0 0 1-.21-1.1q3.39-17.37 7-34.73c2.05-9.9 2.37-19.16 2.85-29.26a2.29 2.27-14.4 0 1 1.09-1.83q30.52-18.59 65.53-27.64c15.14-3.91 27.98-4.63 42.56-1.12q37.26 8.98 70.19 28.85a1.73 1.72-75.1 0 1 .83 1.44c.21 12.26 1.35 23.04 4.13 35.92q3.06 14.17 5.7 28.42a1.29 1.24-34.6 0 1-.19.92q-15.57 24.04-31.48 47.83c-2.47 3.69-4.55 4.24-9.16 4.24q-60.64.03-121.19 0-1.61 0-2.95-.92Zm47.67-14.48 3.25 6.26a1.2.85 71.8 0 0 .88.65h4q.64 0 .31-.56l-3.49-6a.81.64-42.5 0 1 .13-.82c2.84-3.6 6.12-6.44.77-9.82a.73.56-66 0 1-.19-.79l2.15-6.33a.66.5-76 0 1 .57-.46l8.5.83a.77.42 5.7 0 1 .71.49q-.16 2.56 1.14 1.11a1.08.09 76.6 0 0-.15-1.01c-.19-.88 9.02-1.75 9.52-1.84a.73.49-15.1 0 1 .75.25l1.94 4.28a1.2.5 74.5 0 0 .46.59c1.15.59-1.34-4.71-1.43-4.97a.5.5 0 0 1 .32-.66l9.77-2.95a.77.66 56.2 0 1 .69.19l10.56 10.19a.68.64 53.6 0 0 .74.14c.91-.42-9.11-9.84-10.05-10.82a.26.26 0 0 1 .1-.42c12.37-4.54 22.3-7.2 37.47-10.65q15.41-3.5 30-8.45a1.5 1.49 74.3 0 0 .98-1.75c-4.19-18.42-7.55-34.07-8.78-54.49a1.06 1-75.2 0 0-.43-.79q-3.72-2.56-9.73-5.34-25.86-12-50.85-18.81c-14.22-3.87-25.69-5.26-39.95-1.91Q86.98 27 55.17 44.09a2.85 2.84 78 0 0-1.49 2.31c-1.21 18.44-4.51 35.83-8.68 53.92a1.48 1.47-74.1 0 0 .96 1.73q14.48 5.02 29.51 8.41c16.08 3.62 26.67 6.48 39.83 11.32a.45.42-60.1 0 1 .16.68l-7.13 8.86a.44.35-61.5 0 0 .12.67c.7.14 5.66-6.18 8.06-9.13a.91.5-56.7 0 1 .75-.4l9.74 2.8a.68.54-73.6 0 1 .33.81l-2.02 6.7a.65.65 0 0 1-.62.46l-8.19.03a.5.49 0 0 0-.5.49V150a.69.56.5 0 0 .68.56l2.83.05a.62.44-88.9 0 0 .45-.61l.13-6.51q.01-.9.53.1Zm-20.921-26.595a.27.27 0 0 0-.366-.109l-20.408 11.035a.27.27 0 0 0-.11.365l.086.159a.27.27 0 0 0 .366.109l20.408-11.035a.27.27 0 0 0 .11-.366l-.086-.158Zm51.491 29.485-4.19.03a.75.49 0 0 0-.75.49v3.25a.71.39 4 0 0 .65.42c2.3.21 6.64.52 8.39-1.27 3.25-3.29-1.99-8.18-3.96-11.03q-.95-1.38.67-1.38l3.25.01a.92.45.5 0 0 .91-.43l.13-2.82a.73.53-.4 0 0-.76-.55c-3.36.13-9.64-1.21-9.31 3.82.2 3 3.22 5.94 5 8.56q.6.89-.03.9Zm-67.42-3.73 1.43 7.26a.91.79 83.9 0 0 .8.74h4.5a.88.45-81.5 0 0 .53-.74l3.14-16.28a.42.41 5.1 0 0-.42-.48H90a.9.37-79.1 0 0-.49.75l-1.72 8.01q-.29 1.38-.61.01l-1.63-7.03a.91.45 79.6 0 0-.55-.74h-3a.96.63-81.2 0 0-.69.76L79.75 142q-.3 1.37-.6.02l-1.77-7.99a.98.54 80.1 0 0-.63-.79l-3.5.01a.63.52 83.2 0 0-.48.75l3.13 16.32a.63.54-5 0 0 .6.43h4.75a.63.33-80.6 0 0 .39-.52l1.61-7.48q.28-1.27.52 0Zm15.97-9.51a.61.61 0 0 0-.52.29l-4.87 7.87a.61.61 0 0 0-.01.64l4.87 8.16a.61.61 0 0 0 .53.3h9.05a.61.61 0 0 0 .52-.29l4.97-7.99a.61.61 0 0 0 0-.64l-4.98-8.04a.61.61 0 0 0-.52-.29l-9.04-.01Zm35.96 6.7-.28-5.97a.76.4 87.5 0 0-.42-.72h-3.25a.75.29 90 0 0-.29.75l.06 16a.78.47 89.7 0 0 .48.78l3.32-.11a.85.25 89.2 0 0 .24-.85l-.09-6.32q-.02-1.5.69-.17l3.69 6.84a1.01.46 66.4 0 0 .65.58h3.75a.4.39 76.3 0 0 .34-.58l-4.36-8.66a1.08.91 50.9 0 1 .02-1.01l4.3-6.45q.55-.82-.05-.82l-3.69.05a1.23.22-56.8 0 0-.74.78l-3.88 5.63q-.47.69-.49.25Zm31.27 2.56a.34.34 0 0 1 .34.34l-.09 7.33a.34.34 0 0 0 .34.34l3.85-.01a.34.34 0 0 0 .34-.34v-16.57a.34.34 0 0 0-.34-.34h-3.65a.34.34 0 0 0-.34.35l.11 4.3a.34.34 0 0 1-.34.35h-4.08a.34.34 0 0 1-.34-.34l.05-4.32a.34.34 0 0 0-.34-.34h-3.39a.34.34 0 0 0-.34.34v16.57a.34.34 0 0 0 .34.34h3.32a.34.34 0 0 0 .34-.34v-7.32a.34.34 0 0 1 .34-.34h3.88Zm12.02-9.25a.88.88 0 0 0-.75.41l-4.69 7.54a.88.88 0 0 0-.01.91l4.68 7.96a.88.88 0 0 0 .76.43h8.78a.88.88 0 0 0 .75-.42l4.73-7.79a.88.88 0 0 0-.01-.92l-4.79-7.7a.88.88 0 0 0-.75-.42h-8.7Zm26.34.59q-4.73-1.02-9.59-.49a.66.54 87.7 0 0-.49.65v16.25a.5.5 0 0 0 .5.5h2.75a.5.5 0 0 0 .5-.5v-2.5a1.04.86-15.9 0 1 .57-.83c3.74-1.84 7.62-4.93 7.93-9.42q.22-3.13-2.17-3.66Z"/><path fill="#fff" d="m120.09 143.49-.13 6.51a.62.44-88.9 0 1-.45.61l-2.83-.05a.69.56.5 0 1-.68-.56v-16.25a.5.49 0 0 1 .5-.49l8.19-.03a.65.65 0 0 0 .62-.46l2.02-6.7a.68.54-73.6 0 0-.33-.81l-9.74-2.8a.91.5-56.7 0 0-.75.4c-2.4 2.95-7.36 9.27-8.06 9.13a.44.35-61.5 0 1-.12-.67l7.13-8.86a.45.42-60.1 0 0-.16-.68c-13.16-4.84-23.75-7.7-39.83-11.32q-15.03-3.39-29.51-8.41a1.48 1.47-74.1 0 1-.96-1.73c4.17-18.09 7.47-35.48 8.68-53.92a2.85 2.84 78 0 1 1.49-2.31Q86.98 27 121.28 18.93c14.26-3.35 25.73-1.96 39.95 1.91q24.99 6.81 50.85 18.81 6.01 2.78 9.73 5.34a1.06 1-75.2 0 1 .43.79c1.23 20.42 4.59 36.07 8.78 54.49a1.5 1.49 74.3 0 1-.98 1.75q-14.59 4.95-30 8.45c-15.17 3.45-25.1 6.11-37.47 10.65a.26.26 0 0 0-.1.42c.94.98 10.96 10.4 10.05 10.82a.68.64 53.6 0 1-.74-.14l-10.56-10.19a.77.66 56.2 0 0-.69-.19l-9.77 2.95a.5.5 0 0 0-.32.66c.09.26 2.58 5.56 1.43 4.97a1.2.5 74.5 0 1-.46-.59l-1.94-4.28a.73.49-15.1 0 0-.75-.25c-.5.09-9.71.96-9.52 1.84a1.08.09 76.6 0 1 .15 1.01q-1.3 1.45-1.14-1.11a.77.42 5.7 0 0-.71-.49l-8.5-.83a.66.5-76 0 0-.57.46l-2.15 6.33a.73.56-66 0 0 .19.79c5.35 3.38 2.07 6.22-.77 9.82a.81.64-42.5 0 0-.13.82l3.49 6q.33.56-.31.56h-4a1.2.85 71.8 0 1-.88-.65l-3.25-6.26q-.52-1-.53-.1Zm24.4-112.47q.34 1.15.13 3.3-2.1 21.84-3.94 43.7-.27 3.21.11 5.96.23 1.69 1.31.36 5.55-6.79 9.61-14.58a1.42 1.05-45.9 0 0 .13-.99c-5.09-15.22-4.56-30.76-2.32-46.4a.96.94 9.5 0 0-.78-1.06q-11.35-2.12-22.75-.08a1.39 1.35 80.7 0 0-1.09 1.57c2.49 16.5 2.83 32.73-3.44 48.47a1.15 1.08-50.3 0 0 .06.98q4.02 6.92 9.63 12.59.45.46.56-.26c1.03-6.8-1.9-15.82-3.42-22.55-.33-1.47.48-1.69.84-.26q2.76 11.14 6.62 21.95.41 1.15.94.05 1.44-3.03 1.88-6.85 2.65-22.95 5.68-45.86.07-.59.24-.04Zm28.93 12.34 14.9 7.06q.4.18.35-.23l-1.93-16.94a.85.78 9 0 0-.52-.66q-13.88-5.79-28.35-9.84a.68.68 0 0 0-.86.75l6.64 50.07q.05.41.49.06l2.2-1.79a.27.15-34.4 0 1 .35-.03l.06.19a.57.56 60.7 0 1-.16.59l-2.25 2.01a1.16.97-27.5 0 0-.38.91l1.45 10.8a.72.7 76.7 0 0 .93.59l13.16-4.66a1.37 1.09 76 0 0 .67-1.47l-.98-5.26a.66.34-11.4 0 1 .57-.46l10.23-2.12a.64.63-9.2 0 0 .5-.68l-1.4-12.81a.5.36 88.3 0 0-.34-.44l-12.76-.9a.76.69 85.6 0 1-.65-.62l-2.43-13.56q-.15-.88.51-.56ZM80.66 58.6l12.81 8.44a.39.36 21.8 0 0 .59-.22l5.32-37.09q.26-1.85-1.44-1.12l-16.99 7.27a1.01.71 82.4 0 0-.45.87v21.5a.46.35-76.8 0 0 .16.35Zm131.68 10.12-9.54-29.03a1.38 1.32-87.9 0 0-.71-.8l-11.85-5.37q-.5-.23-.4.47l6.36 41.52a.49.42 78.8 0 0 .53.42q5.84-1.45.2 1.31a.6.4-21.2 0 0-.35.5l4.36 28.27a.56.43 78.4 0 0 .56.49l7.48-2.07a.76.65-9.8 0 0 .56-.68l-.81-21.25q-.03-.81.42-.16l12.65 18.36a.97.3 57.1 0 0 .7.58l1.95-.57a.92.42 78.7 0 0 .22-.94l-9.79-53.59a1.11 1.02-83.2 0 0-.55-.76l-3.5-1.76q-.55-.27-.49.38c.87 9.05 2.98 23.38 2.35 24.85q-.16.4-.35-.17ZM58.99 84.34l10.76.62a.55.39-83.9 0 1 .34.61l-2.86 19.68a.5.36-80.4 0 0 .26.54l9.51 1.96a.66.43-86.7 0 0 .51-.69l-.02-48.81a.92.77 19.1 0 0-.42-.7c-.71-.44-9.01-5.54-8.19-5.97a.72.7 46.9 0 1 .71.03l7.43 4.61q.46.29.46-.22l.06-18.19a.37.34-13.7 0 0-.53-.29l-19.35 9.11a.72.71 79.2 0 0-.42.62l-2.85 54.74a.87.74-81.9 0 0 .54.85l4.32 1.17a.67.33-89.5 0 0 .38-.75l-1.2-18.51a.52.4 1.1 0 1 .56-.41Zm37.74 17.59c-.05-.44 10.64-1.55 11.79-1.69a.8.79-3.9 0 0 .71-.81q-.14-4.69-.63-9.67c-.08-.77-1.07-2.38-.96-.23a.37.36-85.8 0 1-.44.38c-5.01-1.12-10.75.13-15.76.71a.58.55.2 0 1-.64-.61L93.74 69a.95.69 24.1 0 0-.45-.78l-12.16-7.89q-.58-.37-.58.42l-.04 47a.62.47 10.2 0 0 .45.49l21.89 6.09a1.4.61 23.7 0 0 .97 0l5.49-3.01a.93.78 76.2 0 0 .4-.82l-.37-8.68a.98.75-4.9 0 0-1.08-.69l-11.25 1.22a.44.23 84.5 0 1-.28-.42Zm55.6-30.81c-1.54 2.85-6.48 10.75-6.93 15.7a.38.37-10 0 0 .54.36q6.28-2.76 11.19-7.57a1.01.42-42.1 0 0 .42-.89l-4.47-7.79q-.34-.58-.75.19ZM115.64 81.9l11.55 5.95q1.47.76.84-.86-2.82-7.32-7.31-13.75a.44.44 0 0 0-.74.03l-4.46 8.02a.48.4-61.4 0 0 .12.61Zm33.15 7.38q-2.07 2.07.95 1.91 5.94-.33 11.4-2.65a.7.59-22.8 0 0 .41-.81l-2.58-6.47a1.1.88 59.5 0 0-1.55-.59l-8.63 8.61Zm-23.76 1.97c-1.9-3.37-6.15-6.11-9.52-8.23a.65.61 25.8 0 0-.94.3l-2.13 6.16a.83.77-76.5 0 0 .61 1.08l11.68 1.39q.74.08.3-.7Zm56.49-3-.78-4.26a.97.95 75.3 0 0-1.25-.75l-13.26 4.7a.69.45-15.9 0 0-.49.56l1.37 9.74a.8.76-89.7 0 0 .64.68q3.44.56.27 1.17a.64.31-10.8 0 0-.56.42l2.23 13.75a.4.39-12.9 0 0 .51.31l24.78-7.14a.62.6-12.4 0 0 .45-.67l-3.12-20.52a.59.51-13.6 0 0-.74-.38l-9.55 2.95a.62.35 77.5 0 1-.5-.56Zm-41.17.89a2.96 2.96 0 0 0-2.96-2.96 2.96 2.96 0 0 0-2.96 2.96 2.96 2.96 0 0 0 2.96 2.96 2.96 2.96 0 0 0 2.96-2.96Zm9.88 6.69q5.85 1.94 12.04 2.32a.81.47 1.1 0 0 .88-.49l-.89-7.74a.87.37-15.5 0 0-1-.13q-5.88 1.81-11.12 5.07-.98.61.09.97Zm-26.13.28q-5.33-3.38-11.54-4.65a.64.53 8 0 0-.76.47l-.39 7.31a.75.5-3.7 0 0 .84.48q6.07-.72 11.76-2.96.68-.27.09-.65Zm9.67 2.38c.52.36.93 7.34 1.1 8.53q.11.78.43-.01l1.57-3.92q.38-.93.75 0l1.59 3.92q.55 1.36.61-.01l.39-8.49q.03-.5.25-.13l.91 1.45q.69 1.1.61-.09l-.37-6a1.06.35 12.8 0 0-.86-.52q-3.52-.95-7.07-.06a.94.66-7.2 0 0-.7.64l-.67 5.96q-.13 1.17.45.24.36-.58.49-1.25a.37.33-68.6 0 1 .52-.26Zm16.43 2.56q4.6 3.88 10.04 6.47a.55.39 21.9 0 0 .71-.17l2.04-7.48a.79.61 9 0 0-.74-.79q-5.93-.48-11.76.61-1.56.29-.29 1.36Zm-26.45-.26q-5.63-1.07-11.25-.07a.65.44-9.6 0 0-.57.54q.56 3.51 2.16 6.66a.64.51-26.8 0 0 .8.17q4.96-2.45 9.23-5.94 1.29-1.05-.37-1.36Zm35.59 7.57-9.52-3.8q-2.66-1.07-1.24 1.36 2.74 4.65 6.53 8.47a.66.49 41.9 0 0 .88.08l3.61-4.88a.83.75-60 0 0-.26-1.23Zm-43.43.45a1.09 1.09 0 0 0-.47 1.7l4.06 5.14a1.09 1.09 0 0 0 1.76-.06l5.98-8.9a1.09 1.09 0 0 0-1.28-1.63l-10.05 3.75Zm38.43 6.59q-4.07-4.52-9.28-7.71-.75-.46-.63.33.97 6.24 3.61 11.96a.68.48 61.1 0 0 .82.4l5.54-4.2a.61.43 50.3 0 0-.06-.78Zm-32.64 1.08a.86.86 0 0 0 .16 1.37l5.79 3.41a.86.86 0 0 0 1.28-.56l2.38-11.23a.86.86 0 0 0-1.43-.8l-8.18 7.81Zm18.23-6.48q-1.37 6.04-.85 12.24a.92.55 82.6 0 0 .71.9l6.95-1.77a.89.55 70.4 0 0 .23-1.08q-2.26-5.67-6.16-10.39-.67-.81-.88.1Zm-9.78 11.97q3.45 1.11 6.99 1.12a.6.6 0 0 0 .6-.6q.06-6.35-2.11-12.32-.17-.47-.49-.02-3.75 5.35-5.07 11.69a.11.11 0 0 0 .08.13Zm-20.53-5.63a.4.4 0 0 0 .51-.42l-.26-3.16a.4.4 0 0 0-.58-.33l-3.85 1.91a.4.4 0 0 0 .06.74l4.12 1.26Zm14.45 20.74-3.57-.11a.72.56 88 0 0-.56.78l.32 4q.07.93.74.24l3.56-3.69q1.13-1.17-.49-1.22Z"/><path fill="#231f20" d="M144.25 31.06q-3.03 22.91-5.68 45.86-.44 3.82-1.88 6.85-.53 1.1-.94-.05-3.86-10.81-6.62-21.95c-.36-1.43-1.17-1.21-.84.26 1.52 6.73 4.45 15.75 3.42 22.55q-.11.72-.56.26-5.61-5.67-9.63-12.59a1.15 1.08-50.3 0 1-.06-.98c6.27-15.74 5.93-31.97 3.44-48.47a1.39 1.35 80.7 0 1 1.09-1.57q11.4-2.04 22.75.08a.96.94 9.5 0 1 .78 1.06c-2.24 15.64-2.77 31.18 2.32 46.4a1.42 1.05-45.9 0 1-.13.99q-4.06 7.79-9.61 14.58-1.08 1.33-1.31-.36-.38-2.75-.11-5.96 1.84-21.86 3.94-43.7.21-2.15-.13-3.3-.17-.55-.24.04Zm28.66 12.86 2.43 13.56a.76.69 85.6 0 0 .65.62l12.76.9a.5.36 88.3 0 1 .34.44l1.4 12.81a.64.63-9.2 0 1-.5.68l-10.23 2.12a.66.34-11.4 0 0-.57.46l.98 5.26a1.37 1.09 76 0 1-.67 1.47l-13.16 4.66a.72.7 76.7 0 1-.93-.59l-1.45-10.8a1.16.97-27.5 0 1 .38-.91l2.25-2.01a.57.56 60.7 0 0 .16-.59l-.06-.19a.27.15-34.4 0 0-.35.03l-2.2 1.79q-.44.35-.49-.06l-6.64-50.07a.68.68 0 0 1 .86-.75q14.47 4.05 28.35 9.84a.85.78 9 0 1 .52.66l1.93 16.94q.05.41-.35.23l-14.9-7.06q-.66-.32-.51.56ZM80.66 58.6a.46.35-76.8 0 1-.16-.35v-21.5a1.01.71 82.4 0 1 .45-.87l16.99-7.27q1.7-.73 1.44 1.12l-5.32 37.09a.39.36 21.8 0 1-.59.22L80.66 58.6Zm132.03 10.29c.63-1.47-1.48-15.8-2.35-24.85q-.06-.65.49-.38l3.5 1.76a1.11 1.02-83.2 0 1 .55.76l9.79 53.59a.92.42 78.7 0 1-.22.94l-1.95.57a.97.3 57.1 0 1-.7-.58l-12.65-18.36q-.45-.65-.42.16l.81 21.25a.76.65-9.8 0 1-.56.68l-7.48 2.07a.56.43 78.4 0 1-.56-.49l-4.36-28.27a.6.4-21.2 0 1 .35-.5q5.64-2.76-.2-1.31a.49.42 78.8 0 1-.53-.42l-6.36-41.52q-.1-.7.4-.47l11.85 5.37a1.38 1.32-87.9 0 1 .71.8l9.54 29.03q.19.57.35.17ZM58.43 84.75l1.2 18.51a.67.33-89.5 0 1-.38.75l-4.32-1.17a.87.74-81.9 0 1-.54-.85l2.85-54.74a.72.71 79.2 0 1 .42-.62l19.35-9.11a.37.34-13.7 0 1 .53.29L77.48 56q0 .51-.46.22l-7.43-4.61a.72.7 46.9 0 0-.71-.03c-.82.43 7.48 5.53 8.19 5.97a.92.77 19.1 0 1 .42.7l.02 48.81a.66.43-86.7 0 1-.51.69l-9.51-1.96a.5.36-80.4 0 1-.26-.54l2.86-19.68a.55.39-83.9 0 0-.34-.61l-10.76-.62a.52.4 1.1 0 0-.56.41ZM70.38 57.8a.31.31 0 0 0-.61.04l-1.69 11a.31.31 0 0 0 .32.36l4.73-.27a.31.31 0 0 0 .28-.39L70.38 57.8Zm-7.22 2.99a.31.31 0 0 0-.61 0L61 69.51a.31.31 0 0 0 .32.36l3.16-.16a.31.31 0 0 0 .28-.37l-1.6-8.55Z"/><path fill="#fff" d="m70.38 57.8 3.03 10.74a.31.31 0 0 1-.28.39l-4.73.27a.31.31 0 0 1-.32-.36l1.69-11a.31.31 0 0 1 .61-.04Zm-7.22 2.99 1.6 8.55a.31.31 0 0 1-.28.37l-3.16.16a.31.31 0 0 1-.32-.36l1.55-8.72a.31.31 0 0 1 .61 0Z"/><path fill="#231f20" d="m97.01 102.35 11.25-1.22a.98.75-4.9 0 1 1.08.69l.37 8.68a.93.78 76.2 0 1-.4.82l-5.49 3.01a1.4.61 23.7 0 1-.97 0l-21.89-6.09a.62.47 10.2 0 1-.45-.49l.04-47q0-.79.58-.42l12.16 7.89a.95.69 24.1 0 1 .45.78L90.8 90.01a.58.55.2 0 0 .64.61c5.01-.58 10.75-1.83 15.76-.71a.37.36-85.8 0 0 .44-.38c-.11-2.15.88-.54.96.23q.49 4.98.63 9.67a.8.79-3.9 0 1-.71.81c-1.15.14-11.84 1.25-11.79 1.69a.44.23 84.5 0 0 .28.42Zm56.07-31.42 4.47 7.79a1.01.42-42.1 0 1-.42.89q-4.91 4.81-11.19 7.57a.38.37-10 0 1-.54-.36c.45-4.95 5.39-12.85 6.93-15.7q.41-.77.75-.19ZM115.64 81.9a.48.4-61.4 0 1-.12-.61l4.46-8.02a.44.44 0 0 1 .74-.03q4.49 6.43 7.31 13.75.63 1.62-.84.86l-11.55-5.95Zm33.15 7.38 8.63-8.61a1.1.88 59.5 0 1 1.55.59l2.58 6.47a.7.59-22.8 0 1-.41.81q-5.46 2.32-11.4 2.65-3.02.16-.95-1.91Zm-33.28-6.26c3.37 2.12 7.62 4.86 9.52 8.23q.44.78-.3.7l-11.68-1.39a.83.77-76.5 0 1-.61-1.08l2.13-6.16a.65.61 25.8 0 1 .94-.3Zm66.51 5.79 9.55-2.95a.59.51-13.6 0 1 .74.38l3.12 20.52a.62.6-12.4 0 1-.45.67l-24.78 7.14a.4.39-12.9 0 1-.51-.31l-2.23-13.75a.64.31-10.8 0 1 .56-.42q3.17-.61-.27-1.17a.8.76-89.7 0 1-.64-.68l-1.37-9.74a.69.45-15.9 0 1 .49-.56l13.26-4.7a.97.95 75.3 0 1 1.25.75l.78 4.26a.62.35 77.5 0 0 .5.56Z"/><circle cx="137.39" cy="89.14" r="2.96" fill="#231f20"/><path fill="#231f20" d="M150.23 95.83q-1.07-.36-.09-.97 5.24-3.26 11.12-5.07a.87.37-15.5 0 1 1 .13l.89 7.74a.81.47 1.1 0 1-.88.49q-6.19-.38-12.04-2.32Zm-26.13.28q.59.38-.09.65-5.69 2.24-11.76 2.96a.75.5-3.7 0 1-.84-.48l.39-7.31a.64.53 8 0 1 .76-.47q6.21 1.27 11.54 4.65Zm9.15 2.64q-.13.67-.49 1.25-.58.93-.45-.24l.67-5.96a.94.66-7.2 0 1 .7-.64q3.55-.89 7.07.06a1.06.35 12.8 0 1 .86.52l.37 6q.08 1.19-.61.09l-.91-1.45q-.22-.37-.25.13l-.39 8.49q-.06 1.37-.61.01l-1.59-3.92q-.37-.93-.75 0l-1.57 3.92q-.32.79-.43.01c-.17-1.19-.58-8.17-1.1-8.53a.37.33-68.6 0 0-.52.26Zm16.95 2.3q-1.27-1.07.29-1.36 5.83-1.09 11.76-.61a.79.61 9 0 1 .74.79l-2.04 7.48a.55.39 21.9 0 1-.71.17q-5.44-2.59-10.04-6.47Zm-26.45-.26q1.66.31.37 1.36-4.27 3.49-9.23 5.94a.64.51-26.8 0 1-.8-.17q-1.6-3.15-2.16-6.66a.65.44-9.6 0 1 .57-.54q5.62-1 11.25.07Zm35.59 7.57a.83.75-60 0 1 .26 1.23l-3.61 4.88a.66.49 41.9 0 1-.88-.08q-3.79-3.82-6.53-8.47-1.42-2.43 1.24-1.36l9.52 3.8Zm-43.43.45 10.05-3.75a1.09 1.09 0 0 1 1.28 1.63l-5.98 8.9a1.09 1.09 0 0 1-1.76.06l-4.06-5.14a1.09 1.09 0 0 1 .47-1.7Zm38.43 6.59a.61.43 50.3 0 1 .06.78l-5.54 4.2a.68.48 61.1 0 1-.82-.4q-2.64-5.72-3.61-11.96-.12-.79.63-.33 5.21 3.19 9.28 7.71Zm-32.64 1.08 8.18-7.81a.86.86 0 0 1 1.43.8l-2.38 11.23a.86.86 0 0 1-1.28.56l-5.79-3.41a.86.86 0 0 1-.16-1.37Zm18.23-6.48q.21-.91.88-.1 3.9 4.72 6.16 10.39a.89.55 70.4 0 1-.23 1.08l-6.95 1.77a.92.55 82.6 0 1-.71-.9q-.52-6.2.85-12.24Zm-9.78 11.97a.11.11 0 0 1-.08-.13q1.32-6.34 5.07-11.69.32-.45.49.02 2.17 5.97 2.11 12.32a.6.6 0 0 1-.6.6q-3.54-.01-6.99-1.12Zm-20.53-5.63-4.12-1.26a.4.4 0 0 1-.06-.74l3.85-1.91a.4.4 0 0 1 .58.33l.26 3.16a.4.4 0 0 1-.51.42Z"/><rect width="23.74" height=".72" x="-11.87" y="-.36" fill="#fff" rx=".27" transform="rotate(-28.4 287.142 -115.095)"/><path fill="#fff" d="M151.22 145.58c-1.78-2.62-4.8-5.56-5-8.56-.33-5.03 5.95-3.69 9.31-3.82a.73.53-.4 0 1 .76.55l-.13 2.82a.92.45.5 0 1-.91.43l-3.25-.01q-1.62 0-.67 1.38c1.97 2.85 7.21 7.74 3.96 11.03-1.75 1.79-6.09 1.48-8.39 1.27a.71.39 4 0 1-.65-.42V147a.75.49 0 0 1 .75-.49l4.19-.03q.63-.01.03-.9Zm-67.97-2.83-1.61 7.48a.63.33-80.6 0 1-.39.52H76.5a.63.54-5 0 1-.6-.43L72.77 134a.63.52 83.2 0 1 .48-.75l3.5-.01a.98.54 80.1 0 1 .63.79l1.77 7.99q.3 1.35.6-.02l1.56-6.99a.96.63-81.2 0 1 .69-.76h3a.91.45 79.6 0 1 .55.74l1.63 7.03q.32 1.37.61-.01l1.72-8.01a.9.37-79.1 0 1 .49-.75h3.75a.42.41 5.1 0 1 .42.48l-3.14 16.28a.88.45-81.5 0 1-.53.74H86a.91.79 83.9 0 1-.8-.74l-1.43-7.26q-.24-1.27-.52 0Zm16.49-9.51 9.04.01a.61.61 0 0 1 .52.29l4.98 8.04a.61.61 0 0 1 0 .64l-4.97 7.99a.61.61 0 0 1-.52.29h-9.05a.61.61 0 0 1-.53-.3l-4.87-8.16a.61.61 0 0 1 .01-.64l4.87-7.87a.61.61 0 0 1 .52-.29Zm8.63 8.67a4.13 4.13 0 0 0-4.13-4.13 4.13 4.13 0 0 0-4.13 4.13 4.13 4.13 0 0 0 4.13 4.13 4.13 4.13 0 0 0 4.13-4.13Zm27.82-2.22 3.88-5.63a1.23.22-56.8 0 1 .74-.78l3.69-.05q.6 0 .05.82l-4.3 6.45a1.08.91 50.9 0 0-.02 1.01l4.36 8.66a.4.39 76.3 0 1-.34.58h-3.75a1.01.46 66.4 0 1-.65-.58l-3.69-6.84q-.71-1.33-.69.17l.09 6.32a.85.25 89.2 0 1-.24.85l-3.32.11a.78.47 89.7 0 1-.48-.78l-.06-16a.75.29-90 0 1 .29-.75H135a.76.4 87.5 0 1 .42.72l.28 5.97q.02.44.49-.25Zm30.78 2.81h-3.88a.34.34 0 0 0-.34.34v7.32a.34.34 0 0 1-.34.34h-3.32a.34.34 0 0 1-.34-.34v-16.57a.34.34 0 0 1 .34-.34h3.39a.34.34 0 0 1 .34.34l-.05 4.32a.34.34 0 0 0 .34.34h4.08a.34.34 0 0 0 .34-.35l-.11-4.3a.34.34 0 0 1 .34-.35h3.65a.34.34 0 0 1 .34.34v16.57a.34.34 0 0 1-.34.34l-3.85.01a.34.34 0 0 1-.34-.34l.09-7.33a.34.34 0 0 0-.34-.34Zm12.02-9.25h8.7a.88.88 0 0 1 .75.42l4.79 7.7a.88.88 0 0 1 .01.92l-4.73 7.79a.88.88 0 0 1-.75.42h-8.78a.88.88 0 0 1-.76-.43l-4.68-7.96a.88.88 0 0 1 .01-.91l4.69-7.54a.88.88 0 0 1 .75-.41Zm8.51 8.62a4.15 4.15 0 0 0-4.15-4.15 4.15 4.15 0 0 0-4.15 4.15 4.15 4.15 0 0 0 4.15 4.15 4.15 4.15 0 0 0 4.15-4.15Zm17.83-8.03q2.39.53 2.17 3.66c-.31 4.49-4.19 7.58-7.93 9.42a1.04.86-15.9 0 0-.57.83v2.5a.5.5 0 0 1-.5.5h-2.75a.5.5 0 0 1-.5-.5V134a.66.54 87.7 0 1 .49-.65q4.86-.53 9.59.49Zm-4.37 3.07a1.33 1.33 0 0 0-1.64 1.05q-1.43 7.92 3.47 1.57 1.39-1.8-1.83-2.62Z"/><path fill="#231f20" d="M124.07 137.08q1.62.05.49 1.22l-3.56 3.69q-.67.69-.74-.24l-.32-4a.72.56 88 0 1 .56-.78l3.57.11Zm76.89-.17q3.22.82 1.83 2.62-4.9 6.35-3.47-1.57a1.33 1.33 0 0 1 1.64-1.05Z"/><circle cx="104.24" cy="141.91" r="4.13" fill="#231f20"/><circle cx="183.35" cy="141.87" r="4.15" fill="#231f20"/></svg>