<svg xmlns="http://www.w3.org/2000/svg" viewBox="0 0 220 350"><path d="M202.53 317.84a18.73 18.73 0 0 1-18.73 18.73H34.24a18.73 18.73 0 0 1-18.73-18.73V34.52a18.73 18.73 0 0 1 18.73-18.73H183.8a18.73 18.73 0 0 1 18.73 18.73v283.32ZM190.99 38.71a9.71 9.71 0 0 0-9.71-9.71H37.2a9.71 9.71 0 0 0-9.71 9.71v274.34a9.71 9.71 0 0 0 9.71 9.71h144.08a9.71 9.71 0 0 0 9.71-9.71V38.71Z"/><ellipse rx="24.1" ry="22.42" transform="rotate(90.2 21.341 87.665)"/><path d="M134.71 227.32c-.39 1.19.29 2.62.29 3.69v76.49a1 1 0 0 1-1 1h-19.61a1.35 1.35 0 0 1-1.35-1.36l.1-79.91a.73.73 0 0 0-.73-.73h-6.89a.59.59 0 0 0-.59.6l.31 80.65q.01.75-.74.75H84.06a.69.69 0 0 1-.69-.69l.18-79.78a1.27 1.27 0 0 0-1.27-1.28H68.77a.34.34 0 0 1-.33-.43q8.7-30.56 17.06-60.58.62-2.24.18-4.52-2.21-11.56-4.75-23-.25-1.16-1.19-1.41a.73.73 0 0 0-.9.51l-15.37 54.24a.85.85 0 0 1-1.09.57l-13.14-4.55q-.49-.17-.35-.67 9.18-32.88 18.65-65.63 4.44-15.34 17.83-19.8 5.04-1.68 17.51-1.76c19.36-.13 37.15-2.68 46.19 16.99q1.72 3.74 5.57 17.75 7.23 26.27 14.65 52.5.14.49-.35.66l-13.37 4.54q-.61.2-.79-.41l-15.21-53.27a1.3 1.28 1 0 0-.85-.87q-1.45-.44-1.6.92c-.82 7.37-3.08 15.3-4.69 22.33a9.44 9.38 43.8 0 0 .11 4.62l17.14 60.75q.14.52-.39.52h-13.81a.82.8-81.1 0 0-.77.57Z"/></svg>