<?xml version="1.0" encoding="UTF-8"?>
<svg id="_レイヤー_1" data-name="レイヤー 1" xmlns="http://www.w3.org/2000/svg" viewBox="0 0 533 180.48">
  <path d="M184.72,60.4c-1.04-3.62,3.01-5.72,5.96-6.19,5.1-.8,10.2-1.55,15.3-2.24,1.62-.23,2.88-.65,3.79-1.27.33-.22.47-.53.43-.92-.43-3.83-.82-7.65-1.16-11.44-.39-4.42-4.46-12.91.3-15.94,2.94-1.87,6.11-2.18,9.51-.93.3.11.54.29.73.54l2.16,2.85c.16.21.25.45.28.72.65,7.53,1.08,13.99,1.29,19.4.06,1.49.32,2.83.79,4.03.15.37.41.5.8.41,9.69-2.39,19.43-4.41,29.24-6.08,4.44-.75,7.44.89,7.95,5.43.04.35-.03.67-.22.96-4.37,6.75-27.75,9.43-33.38,10.31-.69.11-2.02.42-3.98.94-.31.09-.47.29-.48.62-.15,9.71,1.99,82.74.26,84.02-.2.15-.3.36-.3.61.04,2.76.49,5.85-.99,8.19-2.79,4.42-10.13,5.66-12.96.1-.14-.28-.2-.57-.18-.88.76-12.52,1.64-25.11,1.6-37.58-.06-17.62-.36-35.26-.9-52.91-.01-.31-.26-.55-.57-.54-.01,0-.02,0-.03,0-5.82.52-11.65.82-17.48.9-2.81.04-4.89-1.06-7.2-2.39-.28-.17-.47-.41-.56-.72h0ZM90.1,61.19c2.2,1.69,4.75,3.71,3.6,6.84-5.22,14.24-10.74,28.36-16.56,42.35-5.24,12.62-10.8,28.26-17.39,41.99-.15.31-.21.63-.18.96.31,3.58-3.48,5.91-6.51,6.41-3.53.59-6.96-3.35-6.71-6.74.2-2.82.25-5.3.14-7.45-1.47-28.93-6.06-58.74-10.45-87.76-.17-1.13-.43-1.95-.77-2.44-.18-.27-.25-.56-.22-.88.21-2.2-.77-3.8-.91-5.82-.6-8.74-6.23-9.35-11.57-14.34-.25-.23-.39-.52-.43-.86-.1-.89-.82-7.85.86-7.39.35.09.64,0,.87-.28,4.41-5.3,10.94,4.78,16.76,3.97.35-.05.66.05.92.29,1.66,1.49,2.9,3.03,4.75,4.18,10.08,6.27,19.71,12.08,30.51,18.17,4.63,2.61,9.06,5.54,13.29,8.8h0ZM48.94,50.45c-.06-.09-.14-.16-.25-.21-.37-.2-.56-.09-.59.33-.2,2.94.87,6.24,1.14,8.32,2.76,21.87,6.62,43.75,8.61,65.69.03.35.23.51.58.47,1.99-.25,17.5-48.49,22.35-53.8.27-.29.3-.61.09-.94-.69-1.12-2.71-1.9-3.48-2.46-8.54-6.14-17.92-11-26.8-16.63-.21-.13-.43-.2-.67-.2-.21,0-.39-.07-.55-.2-.25-.2-.39-.32-.43-.37Z"/>
  <path d="M248.14,103.16c-.68.15-1.02.58-1.01,1.28.05,5.77.15,11.52.3,17.25.14,5.05,1.07,12.16.87,18.39-.09,2.56-1.44,5.24-.99,8.4.05.31,0,.61-.15.89-2.8,5.36-6.94,6.58-12.41,3.67-.33-.18-.5-.46-.5-.83v-45.14c0-.55-.37-1.38-1.11-2.5-.19-.29-.43-.52-.72-.71-1.42-.9-2.67-2.01-3.76-3.32-.23-.28-.3-.59-.21-.94.55-2.22,1.96-3.53,4.22-3.94.33-.06.5-.26.51-.59.28-7.84-.7-15.81-.69-22.68.02-10.47,13.91-14.19,13.74-1.53-.09,6.71.21,13.3.9,19.76.1.96.97,1.66,1.93,1.55.05,0,.09-.01.14-.02,6.59-1.27,13.06-3.02,19.4-5.27.5-.18.86-.61.95-1.13.59-3.45.9-7.02.93-10.7.09-11.84.09-23.68,0-35.52-.05-5.37,2.54-9.5,7.75-12.39.3-.17.6-.17.9,0,.93.51,1.93.83,2.99.95.36.05.65.21.87.5,3.16,4.21,2.19,7.11,2.19,11.85-.01,15.49-.33,30.96-.94,46.43-.66,16.72-.52,34.12-1.68,51.24-.38,5.63-3,12.18-10.09,10.93-3.95-.7-4.92-3.49-4.66-7.32.89-12.87,1.54-25.76,1.94-38.67.05-1.74-.04-3.16-.28-4.25-.07-.33-.26-.45-.59-.38l-20.74,4.74ZM327.01,105.79c-.15-.28-.5-.39-.78-.24-.12.06-.21.17-.27.29-2.91,7.29-6.32,14.35-10.24,21.17-.18.31-.25.65-.22,1.01.12,1.14-5.17,11.32-5.97,12.62-1.87,3.03-5.1,10.68-8.07,12.09-.3.14-.55.34-.76.59-3.22,3.95-12.74,5.02-12.32-2.39.35-6.22,1.66-12.88,2.04-18.45,1.84-27.07,2.65-54.18,2.43-81.32-.04-4.29-.9-9.02-1.61-13.36-.67-4.11,1.26-6.5,5.79-7.17,3.7-.55,6.38.54,8.03,3.28.19.31.25.64.2.99-.14.86.05,1.63.58,2.31.19.24.29.52.28.83l-1.03,73.73c0,.21-.08.4-.23.55l-.21.21c-.25.25-.37.55-.38.9l-.15,10.15c0,.28.21.51.48.52.12,0,.24-.03.33-.11.33-.25.43-.63.3-1.14-.08-.31-.04-.61.11-.89,5.42-9.75,9.86-19.93,13.32-30.54.65-1.98.19-5.09,2.4-6.49,3.95-2.48,10.69-5.39,11.91,1.81.66,3.94,2.01,8.21,4.04,12.81,3.79,8.59,7.49,16.84,11.09,24.77.61,1.34.91,1.27.91-.2.03-15.23-.02-30.26-.16-45.07-.11-11.98.08-21.34.57-28.07.35-4.85,2.64-7.05,6.88-6.6,11.34,1.21,5.33,8.5,5.05,15.1-.53,12.53-.82,23.72-.89,33.57-.02,2.31.24,4.82.77,7.55.07.35-.01.66-.23.93-1.13,1.45-1.12,2.94.03,4.49.19.25.27.54.24.85-.03.44-.21.82-.52,1.13-.2.2-.34.43-.41.7-.27.93-.1,1.71.51,2.33.27.28.4.61.4.99v19.01c0,.27.07.53.22.77,1.49,2.42.69,7.84,1.17,11.08.35,2.37.51,4.77.46,7.18-.11,5.21-7.78,3.67-10.37,2.07-.29-.17-.48-.42-.58-.74l-.21-.65c-.1-.33-.31-.57-.64-.71-1.66-.7-2.72-1.42-3.19-2.16-6.97-11.15-12.94-22.82-17.91-35.01-1.01-2.47-2.07-4.83-3.19-7.07h0ZM375.53,136.96c-3.31,1.57-7.17,2.63-8.99-1.55-2.99-6.85,13.99-11.3,10.26-14.38-.26-.22-.54-.25-.84-.08-2.32,1.27-4.76,3.2-7.46,2.49-4.22-1.11-4.74-5.54-1.82-8.47,2.97-2.98,6.77-5.14,10.04-7.74.26-.21.4-.49.41-.82.41-17.49.7-34.98.07-52.43-.24-6.76-.7-14.08,4.07-19.59,5.62-6.51,9.99,1.15,9.68,6.43-.44,7.61-.59,12.77-.45,15.48.75,14.53-.19,28.93-.37,43.48,0,.19.15.34.34.34.07,0,.13-.02.19-.06,2.09-1.47,4.63-1.89,6.7-2.83,3.62-1.66,9.49-3.44,11.68,1.34.37.81.18,1.77-.47,2.39-3.68,3.49-10.55,6.7-14.98,8.72-2.57,1.17-4.26,2.54-3.09,5.5.17.45.43.5.78.16,1.33-1.33,2.63-.97,3.96-1.44,2.48-.87,4.94-1.8,7.37-2.77.3-.12.61-.15.92-.09,3.95.7,8.79,4.21,3.05,7.44-5.28,2.97-10.6,5.84-15.95,8.63-.3.15-.46.4-.47.74-.2,5.66.17,33.41-11.62,25.71-5.37-3.5-1.96-11.24-2.26-16.16-.03-.52-.28-.67-.75-.44h0ZM462.1,34.61c3.54,2.67,2.64,5.7,3.19,9.09.33,2.04.56,4.09.67,6.16.63,10.9,1.2,22.44,1.73,34.61.05.97.55,1.41,1.51,1.32,7.43-.7,14.88-.88,22.34-.53.32.02.59-.23.61-.55,0-.01,0-.02,0-.03.07-14.61.8-29.15,2.17-43.62.58-6.16,4.06-9.41,10.24-6.59,6.64,3.03,1.81,11.45,1.44,16.55-.69,9.53-1.35,23.71-1.98,42.53-.38,11.59-2.11,41.92-.12,44.29.23.27.35.59.35.94v8.31c0,.43.17.77.5,1.04.71.55.69,1.18-.06,1.88-.29.27-.44.61-.44,1v.54c0,.33-.1.63-.31.88-1.64,2.09-3.72,3.18-6.44,2.45-4.22-1.13-6.02-4.16-5.41-9.08.05-.4-.1-.73-.45-.98-.25-.19-.38-.44-.38-.75l-.02-44.65c0-.29.07-.55.21-.79l.81-1.37c.38-.65.2-.91-.54-.79-3.05.48-4.99-.95-7.65-.89-2.61.06-5.22.13-7.82.2-2.38.08-5.01,1.12-8,.69-.59-.08-1.13.32-1.21.9-.01.1-.01.19,0,.29,1.9,14.21.72,30.18.71,44.63,0,1.86-1.02,3.35-.72,5.44.05.39-.06.72-.33.99l-2.62,2.62c-.23.23-.5.37-.83.4-3.37.38-6.33-.46-8.9-2.51-.26-.21-.42-.47-.47-.8-.27-1.81-.25-3.56.04-5.25.79-4.58,1.3-9.09,1.37-13.58.35-20.03.11-40.04-.74-60.05-.57-13.47-1.37-23.04-2.4-28.69-.85-4.64.69-7.46,4.61-8.45.3-.08.59-.05.87.09l1.21.59c.31.15.63.22.98.19,1.35-.11,1.58.81,2.28,1.33h0ZM148.05,113.43c6.03-22.71,9.45-43.85,17.56-68.33.09-.28.08-.55-.03-.82-1.09-2.62-1.32-5.93,1.3-7.8,2.26-1.62,4.96-2.08,8.09-1.38,2.71.59,4.21,2.14,4.51,4.64.04.34,0,.67-.09.99-.16.51,2.8,16.43,3.08,16.73.22.24.32.52.3.85-.18,2.54.54,5.11.8,7.01,1.67,12.37,2.83,24.96,5.3,37.2.12.64.74,1.06,1.38.94.11-.02.21-.06.31-.11,4.37-2.18,7.45-1.46,9.25,2.15,2.75,5.52-5.45,8.41-8.93,9.89-.31.14-.5.38-.55.72-.19,1.25.42,2.65.54,3.6,1.39,11.17,2.37,22.36,2.93,33.59.01.32-.07.62-.24.89-.41.63-.62,1.33-.61,2.1,0,.33-.12.62-.36.85-3.29,3.19-6.93,3.59-10.93,1.2-.3-.18-.48-.44-.53-.79-.27-1.76-1.12-2.66-1.11-4.4.05-11.27-.62-22.49-2.01-33.66-.04-.31-.21-.42-.5-.35l-19.28,4.71c-.34.08-.55.29-.64.63-1.41,5.73-2.12,11.54-2.15,17.45,0,.31-.08.61-.24.88-.45.77-.61,1.64-.47,2.59.17,1.13-.56,2.19-1.67,2.44-2.7.61-5.42.66-8.16.17-.32-.06-.58-.22-.78-.48-3.55-4.63-.27-15.16,1.03-20.5.12-.49.14-.91.07-1.27-.06-.34-.39-.57-.73-.51-.03,0-.05.01-.08.02-3.8,1.16-12.16,1.56-13.83-3.33-.11-.34-.09-.67.06-.99,2.41-5.09,12.7-5.84,16.71-6.84.37-.09.6-.32.7-.68h0ZM170.56,68.66l-10.18,41.71c-.21.88.11,1.2.98.96l14.08-3.89c.61-.16.99-.76.91-1.39l-5.2-37.36c-.02-.16-.17-.28-.34-.26-.12.02-.23.11-.25.23h0Z"/>
  <path d="M433.92,61.86c-1.64-2.56-3.74-4.93-5.22-7.87-.31-.63-.57-.61-.77.07-.65,2.31-1.72,4.16-2.42,6.38-2.28,7.17-5.48,13.81-9.61,19.93-.25.37-.16.87.21,1.13,0,0,0,0,0,0,6.02,4.16,10.72,8.73,16.13,12.99,1.81,1.42,3.14,3.57,4.5,4.94,2.45,2.48,4.07,4.53,7.36,6.34,2.5,1.38,3.47,3.56,2.91,6.54-1.77,9.51-5.25,19.68-10.43,30.52-1.24,2.6-3.78,3.74-3.37,7.53.04.35-.04.68-.23.97-2.39,3.57-5.54,4.28-9.43,2.13-.28-.15-.46-.38-.54-.69-.08-.32-.16-.69-.4-.92-7.81-7.35-13.51-16.06-17.11-26.14-.13-.37-.05-.68.26-.93.24-.19.34-.48.29-.85-.04-.35.04-.68.24-.98,3.01-4.48,6.04-2.25,8.28,1.18,2.91,4.46,6.49,11.55,10.5,14.84.25.21.45.16.6-.13,4.11-8.48,6.88-16.41,8.33-23.79.69-3.53-22.87-22.48-26.62-25.22-.27-.2-.57-.32-.9-.36-4.78-.64-4.43-4.25-2.82-7.76,4.94-10.75,9.97-21.63,13.37-32.97.72-2.38,1.79-4.87,2.56-7.36,1.58-5.11,10.8-9.09,13.7-3.28,4.14,8.28,9.58,16.81,16.33,25.59,1.02,1.33,1.46,3,1.31,5.03-.02.33-.15.62-.38.86-7.31,7.52-13.33-2.58-16.63-7.72h0ZM95.27,142.42c-.06.28.12.56.4.62.08.02.16.01.24,0,8.17-2.21,16.21-4.81,24.11-7.8,3.83-1.45,7.75-2.63,11.74-3.55,2.65-.61,5.09.02,5.88,2.91,1.02,3.71-.46,6.42-4.43,8.13-13.26,5.73-27.22,9.94-41.87,12.62-5.61,1.02-8.01,5.09-13.95.27-3.96-3.21-2.78-5.52.63-8.41.27-.23.45-.52.55-.86l8.1-28.65c.24-.85-.24-1.73-1.09-1.99-10.89-3.24-3.9-8.75,1.99-10.09.94-.21,1.69-.93,1.94-1.87,3.25-12.24,5.87-23.44,8.49-36.92,1.66-8.57,2.92-14.23,3.78-17,1.55-4.97,5.15-8.05,10.81-9.23.37-.08.72-.03,1.05.14,2.45,1.27,3.64,3.37,3.57,6.32-.03,1.3.56,1.71,1.77,1.24,3.77-1.45,7.81-2.75,12.12-3.88,1.93-.51,4.29.11,6.35-1.15.29-.18.6-.26.94-.23,2.65.17,5.58-.77,7.77,0,3.26,1.15,4.2,5.31,1.15,7.42-1.06.73-2.33,1.27-3.8,1.61-9.41,2.18-19.15,5.44-29.22,9.77-.29.13-.47.35-.53.66-1.59,9.07-3.64,17.99-6.15,26.76-1,3.5-1.84,6.94-2.52,10.32-.15.72.32,1.42,1.04,1.57.23.05.48.03.7-.05,9.49-3.33,18.9-6.49,28.23-9.48,7.1-2.28,10.43,6.74,3.62,10.49-.03.02-1.65.67-4.88,1.95-10.29,4.09-20.85,7.31-31.69,9.68-.25.05-.41.2-.46.45l-6.38,28.24h0Z"/>
</svg>