<?xml version="1.0" encoding="UTF-8"?>
<svg id="Alva" xmlns="http://www.w3.org/2000/svg" version="1.1" viewBox="0 0 140.31 60.73">
  <!-- Generator: Adobe Illustrator 29.8.2, SVG Export Plug-In . SVG Version: 2.1.1 Build 3)  -->
  <path d="M121.25,47.77c-.02.26-.29.33-.47.44-3.3,2.1-7.49.93-11.26.77-25.76-1.11-55.44-.88-80.52,5.4-1.28.32-4.02,1.48-5,1.54-.53.03-.73-.04-1.19-.24-.26-.11-3.26-2.16-3.4-2.31-.46-.52.52-2.11,1.03-2.43.47-.3,5.23-1.7,6.07-1.88,5.05-1.12,12.26-1.89,17.52-2.48,17.08-1.9,35.71-1.42,52.83-.64,8.12.37,16.35.54,24.39,1.84h0Z"/>
  <g>
    <path d="M34.1,27.21l-2.38,3.63-7.58-.13-7.48,13.59-3.68-1.63-1.1-4.79,4.78-7.42c-.43-.91-2.79-.55-3.68-.61-.4-.03-.78-.19-1.22-.21-2.14-.09-4.3.08-6.44,0,.25-2.12,1.69-3.89,2.86-5.6l13.33-.14c.46-.14,4.21-4.69,4.94-5.46,4.93-5.19,12.56-11.06,19.69-12.53,1.1-.23,4.87-.87,5.64-.31.59.42,1.04,2.26.9,2.96-.06.32-2.67,3.73-3.16,4.58-3.79,6.63-5.5,14.66-6.8,22.13-.21,1.22-.21,2.89-.48,4-.15.62-2.76,3.74-3.33,3.81-.21.03-3.77-.74-4.03-.86-.2-.09-.37-.15-.31-.42,1.21-6.07,2.68-12.14,4.91-17.92,1.19-3.09,2.72-6.51,4.68-9.18.45-.61,2.2-2.33,2.32-2.59.42-.92-.79-1.77-1.79-1.58-3.23.62-9.8,6.41-12.09,8.91-1,1.1-3.37,3.78-3.99,4.99-.11.21-.33.14,0,.41l5.51,2.35-.02.02Z"/>
    <path d="M78.15,30.62c2.85-3.47,5.59-7.14,9.28-9.78,4.4-3.16,9.52-5.22,14.84-6.27.59,3.07-3.12,3.8-5.24,5.05-5.21,3.09-10.19,7.37-14.25,11.84-2.44,2.69-4.37,5.8-6.9,8.41l-.35.05-3.39-3.05c.64-2.42,1.4-5.04,1.55-7.54.04-.67.26-2.7-.51-2.76-1.14-.09-6.26,3.72-7.43,4.61-3.26,2.52-6.28,5.38-9.3,8.17-4.93-2.26-4.65-7.4-3.92-12,.31-1.97,1.86-4.42-1.69-3.63l-.57-2.92c.13-.68,4.64-3.02,5.43-3.93.87-.99,2.2-5.08,2.98-6.6.64-1.25,2.42-4.55,3.51-5.25,3.58-2.3,4.59,3.9,4.3,6.32-.54,4.49-4.31,6.12-6.99,8.91-1.46,1.51-2.7,7.53-2.76,9.67-.11,4.1,2.64.79,3.99-.29,4.02-3.23,10.01-8.02,14.89-9.58.63-.2,2.66-.82,3.07-.41.9.92-.04,5.45-.37,6.77-.2.81-1.17,3.23-1.16,3.74s.6.6.98.45v.02Z"/>
    <path d="M107.16,32.5c-2.5,1.87-4.8,4.02-7.4,5.75-1.33.88-4.81,3.16-6.32,2.76-.82-.22-3.93-2.35-4.13-3.2-.55-2.32,1.76-6.78,3-8.83,3.69-6.07,9.52-10,16.9-8.28-.11,2.23-3.02,1.69-4.75,2.28-2.54.86-8.51,6.01-8.88,8.66-.22,1.55,1.1,2.25,2.48,1.64,1.76-.77,5.27-3.44,6.93-4.69,2.2-1.65,4.29-3.39,6.16-5.41,1.84.96.43,4.34.31,6.17-.07,1.02-.4,5.54,1.54,4.39,1.13-.67,2.69-3.06,3.68-4.06,3.58-3.6,7.99-5.94,13.07-6.51,3.08-.35,5.23-1.08,5.59,2.82-3.28-.21-6.32,1.07-9.12,2.61-4.23,2.34-8.26,5.97-11.28,9.72-.48.6-2.76,4.12-3.01,4.18-.86.2-2.61-.85-3.22-1.44-.25-.24-1.53-1.98-1.53-2.14v-6.41h-.02Z"/>
  </g>
</svg>