<?xml version="1.0" encoding="UTF-8"?>
<svg id="_レイヤー_1" data-name="レイヤー 1" xmlns="http://www.w3.org/2000/svg" viewBox="0 0 300 116.93">
  <path d="M227.23,48.27l23.27-39.61c.18-.3.44-.45.79-.45l38.25-.02c.26,0,.32.11.18.32l-31.29,49.3c-.18.29-.18.57.01.86l32.6,49.49c.24.36.14.54-.29.54h-38.73c-.33,0-.64-.17-.81-.45l-24.05-38.52c-.07-.11-.21-.13-.32-.06-.06.04-.1.11-.1.18l.03,38.34c0,.34-.17.51-.51.51h-33.01c-.33,0-.5-.17-.5-.5v-22.73c0-.15-.12-.27-.27-.27-.09,0-.17.04-.21.11-12.77,17.78-34.61,24.99-55.64,21.67-16.25-2.56-31.66-9.5-38.06-25.7-.06-.15-.23-.23-.39-.17-.07.03-.13.08-.16.15-7.85,16.75-25.2,25.74-43.34,26.09-9.59.18-24.58.19-44.97.04-.31,0-.46-.16-.46-.46V8.21c0-.33.17-.5.5-.5,13.7,0,27.37-.02,41-.05,21.39-.04,36.17,10.71,46.99,28.62.2.33.38.32.53-.04,5.74-13.84,17.48-22.99,31.81-26.48,3.42-.83,8.29-1.26,14.6-1.29,13.93-.05,27.87-.05,41.82,0,.33,0,.5.17.5.5v27.96c0,.3-.15.45-.45.45-12.49.11-24.98.31-37.48.61-7.91.19-15.74,3.32-18.56,11.22-3.97,11.13-2.03,26.39,11.1,30.28,7.48,2.22,14.08-.09,18.02-6.86.06-.1.03-.23-.07-.29-.03-.02-.07-.03-.11-.03l-14.17.2c-.29,0-.52-.23-.53-.52,0,0,0,0,0-.01v-22.04c0-.33.17-.5.51-.51l47.02-.28c.31,0,.47-.16.47-.48V8.7c0-.33.17-.5.5-.5h33c.33,0,.5.17.5.5v39.43c0,.64.16.69.48.14h0ZM58.43,54c-.14,0-.27-.09-.31-.23l-3.96-12.69c-.04-.17-.22-.27-.39-.23-.11.03-.2.12-.23.23l-3.96,12.69c-.04.14-.17.23-.31.23l-13.3-.15c-.18,0-.32.14-.32.32,0,.1.05.2.13.26l10.85,7.7c.11.08.16.23.12.36l-4.26,12.6c-.06.17.02.35.19.41.1.04.22.02.31-.05l10.67-7.94c.11-.08.27-.08.38,0l10.67,7.94c.14.11.34.09.45-.05.07-.09.09-.2.05-.31l-4.26-12.6c-.04-.13,0-.28.12-.36l10.85-7.7c.14-.1.18-.3.07-.45-.06-.08-.16-.13-.26-.13,0,0-13.3.15-13.3.15Z"/>
</svg>