<?xml version="1.0" encoding="UTF-8"?>
<svg id="_レイヤー_1" data-name="レイヤー 1" xmlns="http://www.w3.org/2000/svg" viewBox="0 0 691.38 83.17">
  <path d="M106.93,6.24H6.14v14.24h100.79V6.24ZM388.82,6.24h-14.17v71.21h113.39v-14.24h-99.21V6.24h0ZM133.7,34.72H6.14v14.24h127.56v-14.24h0ZM360.48,34.72h-42.52v14.24h42.52v-14.24h0ZM106.93,63.21H6.14v14.24h100.79v-14.24h0ZM651.02,6.24h-77.95v14.24h77.95c11.73,0,21.26,9.57,21.26,21.37s-9.53,21.36-21.26,21.36h-77.95v14.25h77.95c19.56,0,35.43-15.95,35.43-35.6s-15.88-35.6-35.43-35.6Z"/>
  <path d="M232.9,20.49c-6.66-8.96-17.17-14.25-28.34-14.25h-85.04v14.24h85.04c11.73,0,21.26,9.57,21.26,21.37s-9.52,21.36-21.26,21.36h-85.04v14.25h85.04c11.17,0,21.68-5.29,28.35-14.25,6.67,8.96,17.18,14.25,28.35,14.25h99.21v-14.24h-99.21c-11.73,0-21.26-9.57-21.26-21.36s9.52-21.37,21.26-21.37h99.21V6.24h-99.22c-11.17,0-21.68,5.29-28.35,14.25h0ZM544.7,48.97c11.73,0,21.26-9.57,21.26-21.37s-9.53-21.36-21.26-21.36h-99.21v42.72h14.17v-28.48h85.04c3.91,0,7.09,3.19,7.09,7.12s-3.17,7.12-7.09,7.12h-56.69v14.24l60.24,28.48h24.8l-60.24-28.48h31.89,0Z"/>
</svg>