<?xml version="1.0" encoding="UTF-8"?>
<svg id="_レイヤー_1" data-name="レイヤー 1" xmlns="http://www.w3.org/2000/svg" viewBox="0 0 308.16 95.43">
  <defs>
    <style>
      .cls-1 {
        fill: none;
        stroke: gray;
        stroke-width: 2px;
      }
    </style>
  </defs>
  <g>
    <path class="cls-1" d="M45.39,68.57l3.4,10.64c.09.28.28.38.57.31l5.69-1.55c.35-.09.56-.32.62-.67,1.16-6.72-1.98-18.84,5.96-22.64.31-.15.68-.02.83.28.02.05.04.1.05.15,1.47,7.46,1.01,12.73,9.32,15.71.3.11.59.07.86-.11l5.55-3.64c.3-.19.7-.11.9.2.06.09.1.2.1.31.55,11.89,8.44,20.85,21.06,18.77.31-.05.58-.18.81-.39l11.34-10.73c.26-.24.37-.61.28-.96l-3.17-12.3c-.28-1.06.36-2.14,1.42-2.42.07-.02.15-.03.22-.04l8.76-1.24c.39-.05.55.11.49.5l-.83,5.52c-.07.45.04.86.33,1.21l9.71,11.91c.21.27.49.36.82.28l18.71-4.6c.34-.09.64-.02.91.21,5.4,4.46,11.63,6.14,18.68,5.03.35-.05.65-.2.9-.43,2.37-2.11,3.83-3.43,5.91-6.3,2.05-2.83,7.97-4.53,10.66-5.22.35-.09.57.04.66.39,1.26,5.04,4.15,8.9,8.66,11.58.25.15.51.18.78.1,5.15-1.45,13.32-8.81,17.52-12.29.17-.14.42-.12.56.05.09.1.11.24.08.37l-3.07,10.42c-.1.33-.11.67-.02,1.02,1.02,3.99,2.81,6.97,5.37,8.96,3.54,2.75,6.94,2.32,10.98,2.31,4.12,0,6.53-2.78,8.24-6.18.19-.39.43-.41.7-.08,2.55,3.01,5.78,4.47,9.69,4.36,4.23-.11,5.97-9.11,7.12-13.03.07-.24.32-.37.56-.3.05.01.09.04.13.06,8.75,6.45,15.33,6.55,25.86,3.69.33-.09.62-.02.88.21,4.45,3.99,8.62,5.56,13.76,8.29.69.37,1.27.22,1.75-.47.26-.37.19-.87-.16-1.15-3.93-3.15-7.48-6.69-10.67-10.6-.18-.22-.14-.55.08-.74.01-.01.03-.02.05-.03,6.1-3.85,11.64-8.39,16.63-13.62.24-.25.35-.55.32-.9-.35-4.12-.85-8.22-1.5-12.31-.79-4.89-7.59-5.72-11.6-5.4-.33.02-.61.14-.85.37-8.49,7.77-13.05,17.44-13.69,29.02-.02.37-.22.56-.59.56h-6.03c-1.24,0-2.32-.85-2.6-2.06-2.07-8.9-1.8-18.44-1.99-27.55,0-.22.17-.39.38-.39h10.7c.39-.01.76-.18,1.01-.47,1.65-1.93,2.21-4.19,1.68-6.79-.08-.38-.29-.66-.63-.84-3.25-1.69-8.84-1.57-12.5-1.7-.23,0-.39-.12-.46-.35l-2.57-7.76c-.11-.35-.44-.59-.82-.59h-5.46c-.44,0-.81.29-.92.71l-1.74,6.64c-.06.24-.21.36-.45.36l-11.07.13c-.75,0-1.34.62-1.34,1.36,0,.04,0,.07,0,.11.62,6.77,5.27,7.64,11.01,8.29.29.03.49.29.46.59,0,0,0,0,0,0-.27,1.84-.41,3.69-.42,5.55-.06,8.81-.86,17.55-2.4,26.22-.21,1.19-.54,2.11-.98,2.75-.26.38-.78.47-1.15.21-.1-.07-.18-.16-.25-.26-2.55-4.31-3.39-6.8-4.74-12.37-1.17-4.81-4.57-7.25-10.22-7.3-.29,0-.52-.24-.51-.53,0-.01,0-.03,0-.04.17-1.66,2.13-8.01-1.65-7.13-1.15.27-3.54,1.5-7.17,3.71-7.2,4.39-14.05,9.2-20.54,14.43-.31.25-.76.2-1.01-.11-.08-.1-.13-.21-.15-.34l-.83-5.39c-.06-.39.06-.71.35-.98,7.1-6.27,12.42-12.78,13.85-22.31,1.17-7.79.96-16.01-.63-24.66-.06-.33-.22-.63-.47-.86-4.29-4.08-12.29-4.25-17.95-4.28-.33,0-.63.19-.77.49-.94,2.11-1.57,4.59-1.89,7.43-1.87,16.39-2.41,31.11-2.96,46.78-.01.3-.17.48-.46.53l-9.92,1.8c-.41.08-.72-.07-.91-.45-2.97-5.87-6.56-11.34-10.77-16.41-.22-.26-.49-.35-.82-.28-3.62.79-8.02,1.43-10.89,3.24-6.07,3.84-7.36,10.93-7.66,17.68-.02.35-.19.6-.52.75-4.43,1.96-9.05,3.34-13.85,4.14-.33.05-.62-.04-.86-.27-2.59-2.56-4.58-5.53-5.95-8.91-.14-.34-.09-.73.13-1.03l6.06-8.42c.24-.33.55-.43.94-.29l7.03,2.54c.32.11.68,0,.89-.26,1.73-2.17,2.94-4.61,3.63-7.31.08-.31-.04-.63-.3-.81-4.02-2.87-9.03-5.49-13.82-2.31-8.68,5.76-18.77,8.66-29.16,6.86-5.49-.95-11.52-3.29-16.66.09-3.39,2.23-6.24,5.23-8.55,9.01-.17.29-.41.34-.7.17-1.25-.73-1.8-1.83-1.64-3.31.96-8.51-2.61-13.61-10.7-15.28-4.81-.99-10.42,2.55-13.9,5.16-.22.16-.34.1-.36-.17-1.14-13.97.04-27.5-.29-41.63,0-.27-.14-.4-.41-.39l-7.55.15c-.97.02-1.41.51-1.34,1.48,1.08,14.73,2.12,29.14,3.11,43.24.43,6.17-1.02,10.48-3.89,15.59-.16.29-.4.41-.73.37-8.05-1.08-15.01-4.67-22.1-8.38-.31-.17-.51-.49-.51-.84v-2.73c0-.38.3-.68.67-.68.02,0,.04,0,.06,0l14.12,1.03c.32.02.62-.18.72-.48.79-2.38.99-4.85.58-7.4-.06-.34-.24-.59-.53-.76-4.35-2.47-12.47-3.24-17.39-3.75-.76-.08-1.49.32-1.84,1-2.16,4.21-4.03,8.62-5.6,13.22-1.83,5.37-1.25,9.11,3.03,12.67.27.21.44.49.53.82,2.44,9.15,17.18,9.09,24.13,8.94.31,0,.58-.13.79-.36l9.89-10.95c.46-.51.79-.43,1,.22" vector-effect="non-scaling-stroke"/>
    <path class="cls-1" d="M195.6,13.93c-1.45,5.75-2.41,11.54-2.86,17.37-.48,6.07.48,13.22.56,19.9,0,.61.41,1.19,1.21,1.73.29.19.5.13.65-.18,5.59-12.18,8.32-25,8.21-38.46,0-.31-.16-.48-.46-.52l-5.82-.85c-.68-.1-1.33.34-1.49,1.01M293.23,50.16c-2.62,5.53-4.53,11.31-5.74,17.32-.04.16.06.32.22.36.09.02.18,0,.25-.05,3.81-2.62,7.22-5.7,10.21-9.25.21-.24.31-.52.31-.83v-6.39c0-.36-.18-.58-.54-.65l-4.07-.83c-.29-.06-.51.05-.64.32M105.64,73.33c.49-4.96-2.64-10.25-8.22-10.06-.6.02-1.1-.46-1.12-1.06,0,0,0,0,0-.01l-.1-8.08c0-.37-.19-.52-.55-.46l-5.65.91c-.29.05-.44.21-.46.5-.37,6.1-1.36,12.16.11,18.13.23.91,1.07,1.54,2.01,1.48l13.38-.77c.32-.02.57-.26.6-.58M171.13,64.46c1.15-6.42-3.79-8.99-9.37-7.68-.7.16-1.14.86-.97,1.56.05.23.17.44.33.62,2,2.07,6.24,5.86,9.42,5.97.33.01.53-.14.59-.47M215.75,73.8c-.35.5-.26.9.28,1.19l9.33,5.13c.37.2.62.1.76-.3,1.84-5.21,2.51-10.58,2.02-16.12-.04-.49-.28-.62-.71-.39-4.71,2.55-8.61,6.04-11.68,10.49M169.23,69.88c-4.05-.77-7.68-2.46-10.89-5.07-.33-.27-.52-.19-.55.24-.32,3.91-1.05,6.06,2.73,8.19,4.19,2.36,7.16,1.36,8.91-3,.05-.14-.02-.3-.16-.35-.01,0-.03,0-.04-.01" vector-effect="non-scaling-stroke"/>
  </g>
  <path d="M44.39,68.35l-9.89,10.95c-.21.23-.48.35-.79.36-6.95.15-21.69.21-24.13-8.94-.09-.33-.26-.61-.53-.82-4.28-3.56-4.86-7.3-3.03-12.67,1.57-4.6,3.44-9.01,5.6-13.22.35-.68,1.08-1.08,1.84-1,4.92.51,13.04,1.28,17.39,3.75.29.17.47.42.53.76.41,2.55.21,5.02-.58,7.4-.1.3-.4.5-.72.48l-14.12-1.03c-.37-.03-.69.24-.73.62,0,.02,0,.04,0,.06v2.73c0,.35.2.67.51.84,7.09,3.71,14.05,7.3,22.1,8.38.33.04.57-.08.73-.37,2.87-5.11,4.32-9.42,3.89-15.59-.99-14.1-2.03-28.51-3.11-43.24-.07-.97.37-1.46,1.34-1.48l7.55-.15c.27,0,.4.12.41.39.33,14.13-.85,27.66.29,41.63.02.27.14.33.36.17,3.48-2.61,9.09-6.15,13.9-5.16,8.09,1.67,11.66,6.77,10.7,15.28-.16,1.48.39,2.58,1.64,3.31.29.17.53.12.7-.17,2.31-3.78,5.16-6.78,8.55-9.01,5.14-3.38,11.17-1.04,16.66-.09,10.39,1.8,20.48-1.1,29.16-6.86,4.79-3.18,9.8-.56,13.82,2.31.26.18.38.5.3.81-.69,2.7-1.9,5.14-3.63,7.31-.21.27-.57.37-.89.26l-7.03-2.54c-.39-.14-.7-.04-.94.29l-6.06,8.42c-.22.3-.27.69-.13,1.03,1.37,3.38,3.36,6.35,5.95,8.91.24.23.53.32.86.27,4.8-.8,9.42-2.18,13.85-4.14.33-.15.5-.4.52-.75.3-6.75,1.59-13.84,7.66-17.68,2.87-1.81,7.27-2.45,10.89-3.24.33-.07.6.02.82.28,4.21,5.07,7.8,10.54,10.77,16.41.19.38.5.53.91.45l9.92-1.8c.29-.05.45-.23.46-.53.55-15.67,1.09-30.39,2.96-46.78.32-2.84.95-5.32,1.89-7.43.14-.3.44-.49.77-.49,5.66.03,13.66.2,17.95,4.28.25.23.41.53.47.86,1.59,8.65,1.8,16.87.63,24.66-1.43,9.53-6.75,16.04-13.85,22.31-.29.27-.41.59-.35.98l.83,5.39c.06.39.43.66.82.6.12-.02.24-.07.34-.15,6.49-5.23,13.34-10.04,20.54-14.43,3.63-2.21,6.02-3.44,7.17-3.71,3.78-.88,1.82,5.47,1.65,7.13-.03.29.18.54.47.57.01,0,.03,0,.04,0,5.65.05,9.05,2.49,10.22,7.3,1.35,5.57,2.19,8.06,4.74,12.37.23.4.74.53,1.14.3.11-.06.2-.15.26-.25.44-.64.77-1.56.98-2.75,1.54-8.67,2.34-17.41,2.4-26.22.01-1.86.15-3.71.42-5.55.04-.3-.17-.56-.45-.6,0,0,0,0,0,0-5.74-.65-10.39-1.52-11.01-8.29-.07-.74.48-1.4,1.22-1.46.04,0,.07,0,.11,0l11.07-.13c.24,0,.39-.12.45-.36l1.74-6.64c.11-.42.48-.71.92-.71h5.46c.38,0,.71.24.82.59l2.57,7.76c.07.23.23.34.46.35,3.66.13,9.25.01,12.5,1.7.34.18.55.46.63.84.53,2.6-.03,4.86-1.68,6.79-.25.29-.62.46-1.01.46h-10.7c-.21.01-.38.18-.38.4h0c.19,9.11-.08,18.65,1.99,27.55.28,1.21,1.36,2.06,2.6,2.06h6.03c.37,0,.57-.19.59-.56.64-11.58,5.2-21.25,13.69-29.02.24-.23.52-.35.85-.37,4.01-.32,10.81.51,11.6,5.4.65,4.09,1.15,8.19,1.5,12.31.03.35-.08.65-.32.9-4.99,5.23-10.53,9.77-16.63,13.62-.25.16-.32.48-.16.73,0,.02.02.03.03.04,3.19,3.91,6.74,7.45,10.67,10.6.35.28.42.78.16,1.15-.48.69-1.06.84-1.75.47-5.14-2.73-9.31-4.3-13.76-8.29-.26-.23-.55-.3-.88-.21-10.53,2.86-17.11,2.76-25.86-3.69-.2-.14-.48-.09-.63.11-.03.04-.05.08-.06.13-1.15,3.92-2.89,12.92-7.12,13.03-3.91.11-7.14-1.35-9.69-4.36-.27-.33-.51-.31-.7.08-1.71,3.4-4.12,6.17-8.24,6.18-4.04,0-7.44.44-10.98-2.31-2.56-1.99-4.35-4.97-5.37-8.96-.09-.35-.08-.69.02-1.02l3.07-10.42c.06-.21-.06-.43-.27-.5-.13-.04-.27,0-.37.08-4.2,3.48-12.37,10.84-17.52,12.29-.27.08-.53.05-.78-.1-4.51-2.68-7.4-6.54-8.66-11.58-.09-.35-.31-.48-.66-.39-2.69.69-8.61,2.39-10.66,5.22-2.08,2.87-3.54,4.19-5.91,6.3-.25.23-.55.38-.9.43-7.05,1.11-13.28-.57-18.68-5.03-.27-.23-.57-.3-.91-.21l-18.71,4.6c-.33.08-.61-.01-.82-.28l-9.71-11.91c-.29-.35-.4-.76-.33-1.21l.83-5.52c.06-.39-.1-.55-.49-.5l-8.76,1.24c-1.08.15-1.84,1.15-1.68,2.24.01.08.03.15.04.22l3.17,12.3c.09.35-.02.72-.28.96l-11.34,10.73c-.23.21-.5.34-.81.39-12.62,2.08-20.51-6.88-21.06-18.77-.02-.36-.33-.63-.69-.61-.11,0-.22.04-.31.1l-5.55,3.64c-.27.18-.56.22-.86.11-8.31-2.98-7.85-8.25-9.32-15.71-.07-.34-.4-.55-.73-.48-.05.01-.1.03-.15.05-7.94,3.8-4.8,15.92-5.96,22.64-.06.35-.27.58-.62.67l-5.69,1.55c-.29.07-.48-.03-.57-.31l-3.4-10.64c-.21-.65-.54-.73-1-.22h0ZM195.6,13.93c-1.45,5.75-2.41,11.54-2.86,17.37-.48,6.07.48,13.22.56,19.9,0,.61.41,1.19,1.21,1.73.29.19.5.13.65-.18,5.59-12.18,8.32-25,8.21-38.46,0-.31-.16-.48-.46-.52l-5.82-.85c-.68-.1-1.33.34-1.49,1.01h0ZM293.23,50.16c-2.62,5.53-4.53,11.31-5.74,17.32-.04.16.06.32.22.36.09.02.18,0,.25-.05,3.81-2.62,7.22-5.7,10.21-9.25.21-.24.31-.52.31-.83v-6.39c0-.36-.18-.58-.54-.65l-4.07-.83c-.29-.06-.51.05-.64.32h0ZM105.64,73.33c.49-4.96-2.64-10.25-8.22-10.06-.6.02-1.1-.46-1.12-1.06,0,0,0,0,0-.01l-.1-8.08c0-.37-.19-.52-.55-.46l-5.65.91c-.29.05-.44.21-.46.5-.37,6.1-1.36,12.16.11,18.13.23.91,1.07,1.54,2.01,1.48l13.38-.77c.32-.02.57-.26.6-.58h0ZM171.13,64.46c1.15-6.42-3.79-8.99-9.37-7.68-.7.16-1.14.86-.97,1.56.05.23.17.44.33.62,2,2.07,6.24,5.86,9.42,5.97.33.01.53-.14.59-.47ZM215.75,73.8c-.35.5-.26.9.28,1.19l9.33,5.13c.37.2.62.1.76-.3,1.84-5.21,2.51-10.58,2.02-16.12-.04-.49-.28-.62-.71-.39-4.71,2.55-8.61,6.04-11.68,10.49h0ZM169.23,69.88c-4.05-.77-7.68-2.46-10.89-5.07-.33-.27-.52-.19-.55.24-.32,3.91-1.05,6.06,2.73,8.19,4.19,2.36,7.16,1.36,8.91-3,.05-.14-.02-.3-.16-.35-.01,0-.03,0-.04-.01Z"/>
</svg>