<?xml version="1.0" encoding="UTF-8" standalone="no"?>
<!-- Generator: Adobe Illustrator 27.7.0, SVG Export Plug-In . SVG Version: 6.00 Build 0)  -->

<svg
   xmlns:dc="http://purl.org/dc/elements/1.1/"
   xmlns:cc="http://creativecommons.org/ns#"
   xmlns:rdf="http://www.w3.org/1999/02/22-rdf-syntax-ns#"
   xmlns:svg="http://www.w3.org/2000/svg"
   xmlns="http://www.w3.org/2000/svg"
   xmlns:sodipodi="http://sodipodi.sourceforge.net/DTD/sodipodi-0.dtd"
   xmlns:inkscape="http://www.inkscape.org/namespaces/inkscape"
   version="1.1"
   id="Layer_1"
   x="0px"
   y="0px"
   viewBox="0 0 2250 607.2"
   xml:space="preserve"
   sodipodi:docname="Birdhouse Skateboards logo.svg"
   width="2250"
   height="607.20001"
   inkscape:version="0.92.4 (5da689c313, 2019-01-14)"><metadata
   id="metadata3745"><rdf:RDF><cc:Work
       rdf:about=""><dc:format>image/svg+xml</dc:format><dc:type
         rdf:resource="http://purl.org/dc/dcmitype/StillImage" /><dc:title></dc:title></cc:Work></rdf:RDF></metadata><defs
   id="defs3743" /><sodipodi:namedview
   pagecolor="#ffffff"
   bordercolor="#000000"
   borderopacity="1"
   objecttolerance="10"
   gridtolerance="10"
   guidetolerance="10"
   inkscape:pageopacity="0"
   inkscape:pageshadow="2"
   inkscape:window-width="1920"
   inkscape:window-height="991"
   id="namedview3741"
   showgrid="false"
   inkscape:zoom="0.704"
   inkscape:cx="1250"
   inkscape:cy="303.60001"
   inkscape:window-x="-9"
   inkscape:window-y="-9"
   inkscape:window-maximized="1"
   inkscape:current-layer="Layer_1" />
<style
   type="text/css"
   id="style3730">
	.st0{fill-rule:evenodd;clip-rule:evenodd;fill:#706E6D;}
	.st1{fill:#706E6D;}
</style>
<path
   class="st0"
   d="m 298.00475,120.5 c 23.66302,49.80685 65.26415,77.28649 93.4117,77.28649 28.72004,0 60.87504,-38.64324 29.29253,-77.28649 z"
   id="path3732"
   inkscape:connector-curvature="0"
   style="clip-rule:evenodd;fill:#706e6d;fill-rule:evenodd;stroke-width:0.95415425" />
<path
   class="st0"
   d="m 2056.7018,385.08697 137.9707,-75.85526 c -19.6555,-58.29883 -69.4624,-95.8925 -129.2879,-95.8925 -56.963,0 -121.6546,46.37189 -121.6546,134.34491 1.9083,85.01515 62.6879,123.65839 127.3796,123.65839 46.4673,0 94.3658,-20.32348 122.6088,-56.963 l -0.2863,-66.12289 c -1.7174,1.71747 -6.8699,-11.35444 -19.9418,-2.4808 -29.1971,19.65557 -71.9432,49.23435 -94.2704,46.46731 -8.2058,-1.14499 -16.2206,-2.67164 -22.5181,-7.15616 z m -27.1934,-45.32233 c -0.3816,-27.8613 20.9914,-49.80685 41.6012,-49.80685 9.0644,0 20.3235,8.77822 27.0025,15.64813 z M 1743.2622,470.0067 h 101.0449 c 56.963,0 83.3931,-31.10543 83.3931,-70.70283 -1.0496,-42.55528 -29.7696,-62.68794 -56.963,-76.04609 -10.5911,-4.96161 -15.839,-10.40029 -16.7931,-15.36189 0.9541,-3.91203 4.7707,-5.91575 10.114,-5.91575 h 55.0547 v -79.09939 h -99.1366 c -22.041,0 -72.802,12.404 -75.6645,64.78707 0,37.59368 23.4722,59.82547 56.963,73.18363 12.4041,4.9616 18.7015,11.92693 18.7015,17.27019 0,4.96161 -7.2516,8.96905 -18.7015,8.96905 h -58.0125 z M 1495.1821,220.20912 v 143.79104 c 0,73.08822 48.8527,107.34235 111.5406,109.25066 70.8937,0 114.8802,-41.02863 114.8802,-110.20481 V 220.20912 h -95.2246 v 138.82944 c 0,15.36188 -7.7287,22.32721 -17.7473,23.28136 -8.6828,-0.95415 -17.2702,-8.39655 -17.2702,-22.23179 V 220.20912 Z m -273.6515,122.5134 c 0,89.97675 74.2332,132.53203 122.5134,132.53203 64.6917,0 128.3338,-50.47476 128.3338,-136.44406 0,-61.73378 -48.8527,-124.51713 -128.3338,-124.51713 -67.4587,0 -122.5134,58.7759 -122.5134,128.42916 z m 95.2246,0 c 0,-18.22434 15.2665,-30.15127 31.1055,-30.62835 14.8848,0 30.7237,13.35816 30.7237,31.67792 0,20.22807 -16.7931,31.58251 -32.6321,31.58251 -14.7893,-0.95416 -29.1971,-13.26275 -29.1971,-32.63208 z M 963.24108,467.33507 h 98.65952 V 327.45605 c 0,-15.36188 9.8278,-24.23551 19.1785,-24.23551 10.782,0 20.1327,8.87363 20.1327,27.09798 v 137.01655 h 99.0412 V 311.14002 c 0,-62.78335 -42.1736,-96.84666 -86.351,-96.84666 -19.0831,0 -37.6891,6.01117 -53.0509,17.36561 V 120.88166 h -97.61002 z m -629.93263,0 h 95.32001 V 220.20912 H 333.30845 Z M 54.6,121.83582 V 318.487 c 0,89.97675 46.94439,154.76382 132.62744,154.76382 62.68793,0 123.56297,-48.47103 123.56297,-133.48618 0,-76.04609 -50.28393,-126.52085 -123.56297,-126.52085 -8.11031,0 -8.58739,0.95416 -16.79312,2.00373 v 96.08333 c 6.20201,-2.4808 6.67908,-3.24413 15.36189,-3.24413 17.74727,0 34.44497,14.31232 34.44497,35.58996 0,21.27764 -14.88481,35.58995 -34.44497,35.58995 -23.4722,0 -35.01746,-20.32349 -35.01746,-40.55156 V 121.83582 Z m 886.21846,0 V 318.487 c 0,89.97675 -46.94439,154.76382 -132.62744,154.76382 -62.68794,0 -123.56298,-48.47103 -123.56298,-133.48618 0,-76.04609 50.28393,-126.52085 123.56298,-126.52085 8.11031,0 8.58738,0.95416 16.79311,2.00373 v 96.08333 c -6.202,-2.4808 -6.67908,-3.24413 -15.36188,-3.24413 -17.74727,0 -34.44497,14.31232 -34.44497,35.58996 0,21.27764 14.88481,35.58995 34.44497,35.58995 23.47219,0 35.01746,-20.32349 35.01746,-40.55156 V 121.83582 Z M 453.72272,467.43048 V 332.60849 c -6.7745,-163.63745 229.66492,-168.50364 212.68098,13.35816 h -80.05354 c 0.38166,-7.72865 -0.76333,-17.9381 -0.95416,-23.94928 -1.2404,-27.67047 -42.74611,-29.1017 -43.50943,8.77822 v 136.63489 z"
   id="path3734"
   inkscape:connector-curvature="0"
   style="clip-rule:evenodd;fill:#706e6d;fill-rule:evenodd;stroke-width:0.95415425" />
<g
   id="g3738"
   transform="matrix(0.95415424,0,0,0.95415424,-68.104235,5.5244123)">
	<path
   class="st1"
   d="m 2383.9,486.8 c -10.2,0 -19.4,-7.1 -19.4,-19.3 0,-12.2 9.1,-19.3 19.4,-19.3 10.2,0 19.3,7.1 19.3,19.3 0,12.2 -9.2,19.3 -19.3,19.3 z m 0,-34.1 c -7.6,0 -13.8,5.9 -13.8,14.8 0,8.8 6.1,14.8 13.7,14.8 h 0.1 v 0.1 c 7.4,0 13.8,-6 13.8,-14.8 -0.1,-8.9 -6.4,-14.9 -13.8,-14.9 z m -3.3,25.2 h -4.4 v -20.7 h 7.7 c 5.4,0 8.5,1.5 8.5,6.3 0,3.8 -2.2,5.2 -5,5.4 l 5.3,9.1 h -5.2 l -4.8,-8.7 h -2.1 z m 4,-12.3 c 2,0 3.2,-0.4 3.2,-2.7 0,-2.1 -2.3,-2.3 -4,-2.3 h -3.1 v 5 z"
   id="path3736"
   inkscape:connector-curvature="0"
   style="fill:#706e6d" />
</g>
</svg>